<svg xmlns="http://www.w3.org/2000/svg" width="30.192" height="39.999" viewBox="0 0 30.192 39.999">
  <g id="BOUGER_MENU" data-name="BOUGER MENU" transform="translate(0 -0.001)">
    <path id="Tracé_2426" data-name="Tracé 2426" d="M24.316,5.624c.511-.005,1.928-.034,2.428-.027a2.819,2.819,0,0,1,2.74,3c-.045,2.153-.1,4.307-.186,6.457a3.259,3.259,0,0,1-3.358,3.266c-.506-.024-1.91-.091-2.437-.119-3.213-.177-9.672-.629-12.877-.9L9.018,17.16a3.306,3.306,0,0,1-2.96-2.66,6.339,6.339,0,0,1,.058-1.813l.34-3.211.188-1.6a8.07,8.07,0,0,1,.289-1.7c1.11-2.731,3.941-1.6,6.125-1.334-1.078.023-2.164.03-3.232.032A2.149,2.149,0,0,0,7.717,7.138c-.026,1.453-.114,4.171-.168,5.65-.049.827-.134,1.766.6,2.318.521.545,1.93.376,2.6.461,3.213.179,9.671.633,12.877.9.5.034,1.9.181,2.391.214a1.766,1.766,0,0,0,1.855-1.727c.212-2.142.461-4.281.717-6.42a2.164,2.164,0,0,0-1.171-2.327,4.9,4.9,0,0,0-1.5-.337l-1.6-.25" transform="translate(-1.321 -0.963)" fill="#412814"/>
    <path id="Tracé_2427" data-name="Tracé 2427" d="M26.08,4.866c-3.5-.285-8.168-.669-11.625-1.04,3.963-5.265,8.9-5.261,11.625,1.04m0,0C23.216-.749,18.914-1.179,15.031,3.779l-.148-.336c3.209.353,7.94.986,11.2,1.423" transform="translate(-3.181 0)" fill="#412814"/>
    <path id="Tracé_2428" data-name="Tracé 2428" d="M27.09,20.076a8.059,8.059,0,0,1,.2,6.021,2.09,2.09,0,0,0-.34,1.137C28.18,31.2,29.083,40.08,25.087,43.357a5.016,5.016,0,0,1-3.669.67l-6.464-.421-6.46-.487c-2.873.106-4.293-2.572-4.708-5.011A18.407,18.407,0,0,1,5.75,25.295c-.156-2.178-.18-4.765,1.049-6.682a10.031,10.031,0,0,0-.526,5c.027.609.252,1.16.249,1.768a18.688,18.688,0,0,0-1.2,12.362c.455,1.837,1.14,3.73,3.3,3.608l6.465.419,6.459.484c1.012.055,1.767.265,2.568-.29,3.2-2.7,2.826-10.854,2.02-14.7a2.721,2.721,0,0,1,.545-1.48,8.278,8.278,0,0,0,.416-5.7" transform="translate(-0.744 -4.096)" fill="#412814"/>
    <path id="Tracé_2429" data-name="Tracé 2429" d="M32.148,44.348c3.6,1.65,3.865-3.847,4.053-6.184-.018-2.153.5-4.706-.7-6.543a1.687,1.687,0,0,0-1.983-.14,1.811,1.811,0,0,1,2.362-.3c1.842,1.793,1.332,4.723,1.275,7.05-.1,2.5-1.4,8.646-5.011,6.116" transform="translate(-7.074 -6.791)" fill="#412814"/>
    <path id="Tracé_2430" data-name="Tracé 2430" d="M4.431,41.577c-4.152,1.239-4.769-3.941-4.3-6.84C.544,32.493.755,29.461,2.88,28.1a1.754,1.754,0,0,1,2.178.9,2.691,2.691,0,0,0-.976-.6c-2.267-.562-2.8,4.858-3.132,6.435C.5,37.556.558,42.16,4.431,41.577" transform="translate(0 -6.154)" fill="#412814"/>
    <path id="Tracé_2431" data-name="Tracé 2431" d="M13.779,26.588a56.421,56.421,0,0,1-.648,14.019,56.424,56.424,0,0,1,.648-14.019" transform="translate(-2.851 -5.851)" fill="#412814"/>
    <path id="Tracé_2432" data-name="Tracé 2432" d="M12.918,8.277a47.554,47.554,0,0,1-.6,12.865,47.554,47.554,0,0,1,.6-12.865" transform="translate(-2.67 -1.821)" fill="#412814"/>
    <path id="Tracé_2433" data-name="Tracé 2433" d="M27.4,27.327a57.439,57.439,0,0,1-.654,14.15,57.518,57.518,0,0,1,.654-14.15" transform="translate(-5.848 -6.013)" fill="#412814"/>
    <path id="Tracé_2434" data-name="Tracé 2434" d="M29.8,9.185a46.594,46.594,0,0,1-.589,12.734A46.594,46.594,0,0,1,29.8,9.185" transform="translate(-6.386 -2.021)" fill="#412814"/>
    <path id="Tracé_2435" data-name="Tracé 2435" d="M27.458,19.883a2.216,2.216,0,0,1,2.82.2,2.215,2.215,0,0,1-2.82-.2" transform="translate(-6.042 -4.284)" fill="#412814"/>
    <path id="Tracé_2436" data-name="Tracé 2436" d="M27.277,21.7a2.215,2.215,0,0,1,2.82.2,2.216,2.216,0,0,1-2.82-.2" transform="translate(-6.003 -4.684)" fill="#412814"/>
    <path id="Tracé_2437" data-name="Tracé 2437" d="M10.574,18.794a2.215,2.215,0,0,1,2.82.2,2.216,2.216,0,0,1-2.82-.2" transform="translate(-2.327 -4.044)" fill="#412814"/>
    <path id="Tracé_2438" data-name="Tracé 2438" d="M10.392,20.191a1.766,1.766,0,0,1,2.82.2,1.765,1.765,0,0,1-2.82-.2" transform="translate(-2.287 -4.308)" fill="#412814"/>
  </g>
</svg>
