<svg xmlns="http://www.w3.org/2000/svg" width="44.127" height="40" viewBox="0 0 44.127 40">
  <g id="CREER_MENU" data-name="CREER MENU" transform="translate(0 0)">
    <path id="Tracé_2451" data-name="Tracé 2451" d="M28.366,0C38.937.371,44.442,13.017,38.519,21.572c-.563.784-2.079,2.894-2.642,3.629-1.523,3.068-1.22,6.842-2.17,10.071a4.656,4.656,0,0,1-5.341,2.684,4.344,4.344,0,0,0,4.306-3.06,13.126,13.126,0,0,0,.146-2.862c.139-3.259.157-6.635,2.187-9.219l1.689-2.457c5-7.678.674-18.137-8.328-20.356" transform="translate(-5.888 0)" fill="#412814"/>
    <path id="Tracé_2452" data-name="Tracé 2452" d="M25,0c-9,2.224-13.326,12.673-8.328,20.356l1.689,2.457c2.033,2.586,2.049,5.982,2.187,9.219a13.126,13.126,0,0,0,.146,2.862A4.344,4.344,0,0,0,25,37.956a4.655,4.655,0,0,1-5.341-2.684c-.95-3.227-.647-7.005-2.17-10.071-.556-.727-2.088-2.858-2.642-3.629C8.919,13.022,14.432.365,25,0" transform="translate(-2.577 0)" fill="#412814"/>
    <path id="Tracé_2453" data-name="Tracé 2453" d="M30.736,19.552a26,26,0,0,1-1.844,4.021c-.479,1.276-.273,2.9-.71,4.269a8.611,8.611,0,0,1-.158-4.613,14.777,14.777,0,0,1,2.713-3.677" transform="translate(-5.761 -4.059)" fill="#412814"/>
    <path id="Tracé_2454" data-name="Tracé 2454" d="M28.167,32.506a2.148,2.148,0,0,1,0,2.708,2.147,2.147,0,0,1,0-2.708" transform="translate(-5.747 -6.747)" fill="#412814"/>
    <path id="Tracé_2455" data-name="Tracé 2455" d="M22.548,36.682a11.892,11.892,0,0,0,9.538-.374,6.836,6.836,0,0,1-9.538.374" transform="translate(-4.68 -7.536)" fill="#412814"/>
    <path id="Tracé_2456" data-name="Tracé 2456" d="M22.548,40.32a15.333,15.333,0,0,0,9.538,0c-2.561,2.376-6.912,2.175-9.538,0" transform="translate(-4.68 -8.369)" fill="#412814"/>
    <path id="Tracé_2457" data-name="Tracé 2457" d="M24.672,44.038c2.711.5,5.263-.48,7.855-1.122-1.98,1.861-5.529,2.934-7.855,1.122" transform="translate(-5.121 -8.908)" fill="#412814"/>
    <path id="Tracé_2458" data-name="Tracé 2458" d="M21.013,6.73a9.379,9.379,0,0,1,7.575-1.622A28.608,28.608,0,0,0,21.013,6.73" transform="translate(-4.361 -1.023)" fill="#412814"/>
    <path id="Tracé_2459" data-name="Tracé 2459" d="M33.64,6.572a3.409,3.409,0,0,1,2.618,2.244A13.915,13.915,0,0,1,33.64,6.572" transform="translate(-6.982 -1.364)" fill="#412814"/>
    <path id="Tracé_2460" data-name="Tracé 2460" d="M26.048,47.635c.241.873.463,1.682,1.525,1.482.482-.031.947-.01,1.07-.206a5.633,5.633,0,0,0,.43-1.276,2.3,2.3,0,0,1,.081,1.556c-.238.59-1.015.632-1.534.673a1.508,1.508,0,0,1-1.571-2.228" transform="translate(-5.375 -9.888)" fill="#412814"/>
    <path id="Tracé_2461" data-name="Tracé 2461" d="M48.061,8.51a3.447,3.447,0,0,1,3.155-1.546A3.446,3.446,0,0,1,48.061,8.51" transform="translate(-9.976 -1.445)" fill="#412814"/>
    <path id="Tracé_2462" data-name="Tracé 2462" d="M49.452,16.358a6.572,6.572,0,0,1,4.939,0,6.572,6.572,0,0,1-4.939,0" transform="translate(-10.264 -3.296)" fill="#412814"/>
    <path id="Tracé_2463" data-name="Tracé 2463" d="M48.061,24.78a3.417,3.417,0,0,1,3.155,1.51,3.42,3.42,0,0,1-3.155-1.51" transform="translate(-9.976 -5.142)" fill="#412814"/>
    <path id="Tracé_2464" data-name="Tracé 2464" d="M7.128,8.567a3.785,3.785,0,0,1-3.46-1.3,3.786,3.786,0,0,1,3.46,1.3" transform="translate(-0.761 -1.502)" fill="#412814"/>
    <path id="Tracé_2465" data-name="Tracé 2465" d="M5.338,16.776A7.671,7.671,0,0,1,0,16.4a7.672,7.672,0,0,1,5.338.374" transform="translate(0 -3.34)" fill="#412814"/>
    <path id="Tracé_2466" data-name="Tracé 2466" d="M7.248,24.78a3.171,3.171,0,0,1-3,1.51,3.171,3.171,0,0,1,3-1.51" transform="translate(-0.882 -5.142)" fill="#412814"/>
  </g>
</svg>
