<svg xmlns="http://www.w3.org/2000/svg" width="40" height="40" viewBox="0 0 40 40">
  <g id="EXPLORER_MENU" data-name="EXPLORER MENU" transform="translate(0 -0.001)">
    <path id="Tracé_2439" data-name="Tracé 2439" d="M25.3,19.446a101.669,101.669,0,0,1,13.178-3.929A141.442,141.442,0,0,1,27.27,27.1a124.7,124.7,0,0,1,8.722-10.836l.665,1.106A86.82,86.82,0,0,1,25.3,19.446" transform="translate(-5.307 -3.246)" fill="#412814"/>
    <path id="Tracé_2440" data-name="Tracé 2440" d="M23,28.692A101.632,101.632,0,0,1,9.826,32.621,141.442,141.442,0,0,1,21.034,21.038a124.7,124.7,0,0,1-8.722,10.836l-.665-1.106A86.952,86.952,0,0,1,23,28.692" transform="translate(-2.061 -4.401)" fill="#412814"/>
    <path id="Tracé_2441" data-name="Tracé 2441" d="M26.369,25.124a.864.864,0,0,1-1.727,0,.864.864,0,0,1,1.727,0m0,0a.639.639,0,0,0-1.277,0,.639.639,0,1,0,1.277,0" transform="translate(-5.169 -5.076)" fill="#412814"/>
    <path id="Tracé_2442" data-name="Tracé 2442" d="M.324,18.805C-.912,8.288,9.629-1.632,20.044.226a27.581,27.581,0,0,0-6.981,2.157A23.47,23.47,0,0,0,.324,18.805" transform="translate(-0.047 0)" fill="#412814"/>
    <path id="Tracé_2443" data-name="Tracé 2443" d="M16.778,44.794c-9.8.215-18.337-9.873-16.536-19.509a29.486,29.486,0,0,0,1.981,6.529,24.338,24.338,0,0,0,14.555,12.98" transform="translate(0 -5.289)" fill="#412814"/>
    <path id="Tracé_2444" data-name="Tracé 2444" d="M44.934,28.143C45.6,38.287,35.3,47.485,25.305,45.654a28.475,28.475,0,0,0,6.742-2.065A23.891,23.891,0,0,0,44.934,28.143" transform="translate(-5.308 -5.887)" fill="#412814"/>
    <path id="Tracé_2445" data-name="Tracé 2445" d="M29.666.664c9.718-.11,18.116,9.914,16.311,19.47a29.776,29.776,0,0,0-1.963-6.477A24.461,24.461,0,0,0,29.666.664" transform="translate(-6.222 -0.138)" fill="#412814"/>
  </g>
</svg>
