<svg xmlns="http://www.w3.org/2000/svg" width="23.526" height="23.318" viewBox="0 0 23.526 23.318">
  <path id="FACEBOOK_MENU" data-name="FACEBOOK MENU" d="M13.976,83.491C8.385,82.966,3.7,77.277,4.024,71.508a11.759,11.759,0,0,1,23.51.331c.083,5.837-4.754,11.422-10.149,11.668-.011-.228-.031-.457-.031-.685,0-2.555,0-5.11,0-7.74h3.041c.165-1.049.32-2.034.489-3.106H17.369c.009-1.2-.224-2.361.388-3.4.735-1.244,2.052-.435,3.1-.79V65.143a27.1,27.1,0,0,0-3.643.03c-1.877.259-3.02,1.748-3.142,3.87-.054.946-.009,1.9-.009,2.9H11.179v3.1h2.8Z" transform="translate(-4.008 -60.19)" fill="#FFFFFF"/>
</svg>
