<svg xmlns="http://www.w3.org/2000/svg" width="52" height="52" viewBox="0 0 52 52">
  <g id="Groupe_449" data-name="Groupe 449" transform="translate(34.348 37.854) rotate(180)">
    <circle id="Ellipse_23" data-name="Ellipse 23" cx="26" cy="26" r="26" transform="translate(-17.652 -14.146)" fill="#fff"/>
    <path id="Tracé_211" data-name="Tracé 211" d="M12.183,8.772a2.907,2.907,0,0,0-.576-1.731C10.948,6.118,2.8,0,1.4,0,.905,0,.741.117.412.577A1.772,1.772,0,0,0,0,1.848C0,3.573.738,4.727,6.447,9.3.738,13.881,0,15.035,0,16.76A1.767,1.767,0,0,0,.412,18.03c.329.462.494.577.987.577,1.4,0,9.55-6.116,10.208-7.04a2.907,2.907,0,0,0,.576-1.731V8.772Z" transform="translate(2.649 2.168)" fill="#472d1c"/>
  </g>
</svg>
