<svg id="INSTAGRAM" xmlns="http://www.w3.org/2000/svg" width="19.738" height="19.685" viewBox="0 0 19.738 19.685">
  <path id="Tracé_5" data-name="Tracé 5" d="M14.021,19.68c-1.295,0-2.59.009-3.885,0A5.666,5.666,0,0,1,4.268,14.3a82.9,82.9,0,0,1,0-8.865A5.465,5.465,0,0,1,9.556.12a83.064,83.064,0,0,1,8.929,0,5.431,5.431,0,0,1,5.277,5.251,78.453,78.453,0,0,1-.011,9.056,5.62,5.62,0,0,1-5.78,5.249c-1.316.017-2.633,0-3.95,0m.012-4.9A4.916,4.916,0,1,0,9.105,9.9a4.945,4.945,0,0,0,4.927,4.888M20.252,4.525a.868.868,0,0,0-.841-.888.894.894,0,0,0-.932.874.91.91,0,0,0,.917.9.894.894,0,0,0,.856-.885" transform="translate(-4.148 0)" fill="#FFFFFF"/>
  <path id="Tracé_6" data-name="Tracé 6" d="M22.826,22.766a4.01,4.01,0,1,1,4.1-3.9,4.04,4.04,0,0,1-4.1,3.9" transform="translate(-13.044 -8.889)" fill="#FFFFFF"/>
</svg>
