<svg xmlns="http://www.w3.org/2000/svg" width="23.394" height="23.37" viewBox="0 0 23.394 23.37">
  <path id="LINKEDIN_MENU" data-name="LINKEDIN MENU" d="M4.148,303.206A11.7,11.7,0,1,1,15.857,314.9,11.685,11.685,0,0,1,4.148,303.206M21.9,308.242c0-1.65.089-3.251-.026-4.837a3.03,3.03,0,0,0-2.974-2.682,13.5,13.5,0,0,0-2.529.524c-.015-.088-.048-.3-.083-.513H14.376v7.495h1.972c0-1.236-.019-2.415.005-3.593a1.782,1.782,0,1,1,3.557-.037c.025,1.2.006,2.4.006,3.642Zm-9.65-7.5H10.285v7.5h1.967Zm.03-2.624a1.018,1.018,0,1,0-.967,1.009,1.011,1.011,0,0,0,.967-1.009" transform="translate(-4.148 -291.528)" fill="#412814"/>
</svg>
