<svg id="LOGO_NEWSLETTER" data-name="LOGO NEWSLETTER" xmlns="http://www.w3.org/2000/svg" xmlns:xlink="http://www.w3.org/1999/xlink" width="26.892" height="27" viewBox="0 0 26.892 27">
  <defs>
    <clipPath id="clip-path">
      <rect id="Rectangle_462" data-name="Rectangle 462" width="26.892" height="27" fill="#fff"/>
    </clipPath>
  </defs>
  <g id="Groupe_429" data-name="Groupe 429" transform="translate(0 0)" clip-path="url(#clip-path)">
    <path id="Tracé_2483" data-name="Tracé 2483" d="M4.794,10.161c3.077-3.217,6.4-6.19,9.773-9.09.126-.1.424-.367.544-.462A2.446,2.446,0,0,1,18.159.466a134.383,134.383,0,0,1,10.258,9.7c-3.679-2.507-7.155-5.306-10.566-8.155-.1-.081-.4-.352-.5-.422a1.083,1.083,0,0,0-1.216-.019c-3.667,3-7.386,5.964-11.337,8.6" transform="translate(-3.46 0)" fill="#fff"/>
    <path id="Tracé_2484" data-name="Tracé 2484" d="M30.523,92.7a78.2,78.2,0,0,1-11.158.7,77.361,77.361,0,0,1-11.158-.7A77.359,77.359,0,0,1,19.366,92a78.206,78.206,0,0,1,11.158.7" transform="translate(-5.923 -66.395)" fill="#fff"/>
    <path id="Tracé_2485" data-name="Tracé 2485" d="M2.285,51.57A1.591,1.591,0,0,1,.608,50.222c-.027-.3-.081-1.038-.1-1.351C.429,47.686.372,46.5.3,45.314.179,42.67.059,40.028,0,37.383a2.325,2.325,0,0,1,2.324-2.247l.445-.01,3.558-.065c4.592-.071,9.623-.062,14.232,0l3.558.065.445.01a2.35,2.35,0,0,1,1.8.84,2.413,2.413,0,0,1,.521,1.779l-.014.445c-.033,2.061-.2,5.027-.282,7.116-.07,1.186-.128,2.372-.208,3.558-.035.3-.056,1.048-.1,1.351A1.592,1.592,0,0,1,24.6,51.57a1.43,1.43,0,0,0,1.322-1.381c-.019-.249-.059-1.045-.085-1.317-.233-3.576-.4-7.538-.5-11.119l-.007-.222a.709.709,0,0,0-.644-.7c-.052,0-.051,0-.12,0l-.445.01c-5.8.124-12,.148-17.79.063l-3.558-.065-.445-.01c-.046,0-.053,0-.071,0a.294.294,0,0,0-.05,0,.709.709,0,0,0-.633.572c-.1,2.633-.179,5.276-.316,7.912-.07,1.186-.127,2.372-.207,3.558-.008.242-.084,1.077-.085,1.317A1.431,1.431,0,0,0,2.285,51.57" transform="translate(0 -25.266)" fill="#fff"/>
    <path id="Tracé_2486" data-name="Tracé 2486" d="M4.794,20.5v4.344L13,30.4a6.846,6.846,0,0,0,7.553-.087l7.626-5.637V20.5Z" transform="translate(-3.46 -14.796)" fill="#fff"/>
    <path id="Tracé_2487" data-name="Tracé 2487" d="M16.294,66.524a74.7,74.7,0,0,1,6.2-4.7c.068-.047,1.184-.807,1.2-.819a2.693,2.693,0,0,1,1.333-.448,2.764,2.764,0,0,1,1.841.6c.174.115.615.439.792.56a73.976,73.976,0,0,1,6.117,4.806,73.847,73.847,0,0,1-6.712-3.934L26.007,61.9a1.645,1.645,0,0,0-1.841.118,79.85,79.85,0,0,1-7.872,4.509" transform="translate(-11.759 -43.699)" fill="#fff"/>
    <line id="Ligne_66" data-name="Ligne 66" x2="7.098" y2="6.069" transform="translate(4.535 11.506)" fill="#fff"/>
    <path id="Tracé_2488" data-name="Tracé 2488" d="M16.294,41.337a17.41,17.41,0,0,1,3.91,2.611,17.231,17.231,0,0,1,3.187,3.457,17.224,17.224,0,0,1-3.91-2.611,17.413,17.413,0,0,1-3.187-3.457" transform="translate(-11.759 -29.831)" fill="#fff"/>
    <line id="Ligne_67" data-name="Ligne 67" x1="7.098" y2="6.069" transform="translate(15.112 11.506)" fill="#fff"/>
    <path id="Tracé_2489" data-name="Tracé 2489" d="M61.392,41.337A17.413,17.413,0,0,1,58.2,44.794a17.224,17.224,0,0,1-3.91,2.611,17.231,17.231,0,0,1,3.187-3.457,17.416,17.416,0,0,1,3.91-2.611" transform="translate(-39.182 -29.831)" fill="#fff"/>
  </g>
</svg>
