<svg xmlns="http://www.w3.org/2000/svg" width="44.736" height="40" viewBox="0 0 44.736 40">
  <g id="MANGER_MENU" data-name="MANGER MENU" transform="translate(0)">
    <path id="Tracé_2490" data-name="Tracé 2490" d="M.588,2.391c-.794.779-.029,1.869.576,2.522C4.028,8.269,6.72,11.775,9.31,15.342c1.989,2.745,3.923,5.534,5.762,8.384a1.915,1.915,0,0,0,1.478,1.088c.087-.016.092-.011.264-.145.826-.611,1.657-1.205,2.528-1.759-.416.549-.853,1.076-1.295,1.6-.316.345-.536.665-.889.991a1.434,1.434,0,0,1-1.076.247,3.155,3.155,0,0,1-1.993-1.312Q8.379,17.271,3.364,9.6,2.254,7.889,1.184,6.153C.695,5.283-.12,4.322.015,3.254a1.1,1.1,0,0,1,.573-.863" transform="translate(0 -2.031)" fill="#412814"/>
    <path id="Tracé_2491" data-name="Tracé 2491" d="M41.92,40.368c-6.91-6.154-13.3-12.8-19.575-19.586C16.892,14.83,11.568,8.746,6.589,2.385,5.976,1.552,5.049.443,3.9.912A1.687,1.687,0,0,1,5.632.865,5.534,5.534,0,0,1,7.065,1.948c5.917,5.5,11.528,11.32,17,17.258,6.226,6.823,12.312,13.756,17.858,21.162" transform="translate(-3.315 -0.552)" fill="#412814"/>
    <path id="Tracé_2492" data-name="Tracé 2492" d="M58.262,97.849a125.7,125.7,0,0,1-11.753,13.4A124.394,124.394,0,0,1,33.2,123.113a124.349,124.349,0,0,1,11.753-13.4A125.7,125.7,0,0,1,58.262,97.849" transform="translate(-28.198 -83.113)" fill="#412814"/>
    <path id="Tracé_2493" data-name="Tracé 2493" d="M211.014,21.65a45.636,45.636,0,0,1-5.247,6.18,45.157,45.157,0,0,1-6.138,5.3,45.143,45.143,0,0,1,5.247-6.18,45.634,45.634,0,0,1,6.138-5.3" transform="translate(-169.565 -18.39)" fill="#412814"/>
    <path id="Tracé_2494" data-name="Tracé 2494" d="M196.016,0c-2.211,2.745-4.563,5.359-6.949,7.936-1.24,1.326-2.265,3.514-1.361,5.252a2.511,2.511,0,0,0,.254.346c.046.05.106.127.156.172.209.2.625.617.831.823.045.049.123.11.173.154a2.508,2.508,0,0,0,.348.252,3.087,3.087,0,0,0,1.8.307,6.1,6.1,0,0,0,3.435-1.711c2.558-2.407,5.153-4.78,7.882-7.01-2.209,2.747-4.561,5.361-6.948,7.937a7.484,7.484,0,0,1-3.214,2.072A4.648,4.648,0,0,1,188.4,16.1a7.3,7.3,0,0,1-.973-.87c-.086-.088-.455-.448-.528-.536-1.788-1.9-1.076-4.9.382-6.741a9.841,9.841,0,0,1,.853-.94c2.558-2.407,5.153-4.78,7.88-7.012" transform="translate(-157.853)" fill="#412814"/>
  </g>
</svg>
