<svg xmlns="http://www.w3.org/2000/svg" xmlns:xlink="http://www.w3.org/1999/xlink" width="1920" height="108" viewBox="0 0 1920 108">
  <defs>
    <clipPath id="clip-path">
      <rect id="Rectangle_513" data-name="Rectangle 513" width="1920" height="108" transform="translate(-122.365 4126)" fill="#fff" stroke="#707070" stroke-width="1"/>
    </clipPath>
  </defs>
  <g id="PHRISE_FOOTER" data-name="PHRISE FOOTER" transform="translate(122.365 -4126)" clip-path="url(#clip-path)">
    <g id="PHRISE_FOOTER-2" data-name="PHRISE FOOTER" transform="translate(-221.301 4097)">
      <path id="Tracé_459" data-name="Tracé 459" d="M245.594,15.394c-.657-3.443-1.331-1.951,0,0" transform="translate(424.751 4.277)" fill="#fff"/>
      <path id="Tracé_460" data-name="Tracé 460" d="M528.154,9.349c.078-.378.14-.671.194-.923-.11-.293-.194-.2-.194.923" transform="translate(916.349 2.657)" fill="#fff"/>
      <path id="Tracé_461" data-name="Tracé 461" d="M400.179,20.19c-1.036-4.645-1.619.568-2.037.713.589.214,1.208-2.612,2.037-.713" transform="translate(690.636 5.86)" fill="#fff"/>
      <path id="Tracé_462" data-name="Tracé 462" d="M173.752,13.479c.269.122.618-.832.822-1.211-.049-1.416-.275-1.395-.822,1.211" transform="translate(301.439 3.634)" fill="#fff"/>
      <path id="Tracé_463" data-name="Tracé 463" d="M44.027,1.207c.029-2.4-.806-.725-1.558.728-.178.729,1.535-.638,1.558-.728" transform="translate(95.024 0)" fill="#fff"/>
      <path id="Tracé_464" data-name="Tracé 464" d="M489.262,3.578c0-.07.007-.123.01-.186-.016-.012-.019.042-.01.186" transform="translate(848.879 1.088)" fill="#fff"/>
      <path id="Tracé_465" data-name="Tracé 465" d="M489.983,2.564c-.207,1.17-.615-1.347-.722,1.1.133.119,1.2,6.406.722-1.1" transform="translate(848.809 0.817)" fill="#fff"/>
      <path id="Tracé_466" data-name="Tracé 466" d="M564.382,7.185a3.691,3.691,0,0,0,.648,1.327c-.392-1.532-.855-3.584-.648-1.327" transform="translate(979.062 1.984)" fill="#fff"/>
      <path id="Tracé_467" data-name="Tracé 467" d="M614.939,11.058a4.7,4.7,0,0,0,.207-.46c-.139-.338-.33-.8-.207.46" transform="translate(1066.848 3.281)" fill="#fff"/>
      <path id="Tracé_468" data-name="Tracé 468" d="M615.047,10.379c-.023.062-.049.112-.071.172.1.244.172.423.071-.172" transform="translate(1066.995 3.329)" fill="#fff"/>
      <path id="Tracé_469" data-name="Tracé 469" d="M609.134,13.25a.661.661,0,0,0,0,.069c.314,2.239,0-.069,0-.069" transform="translate(1056.856 4.25)" fill="#fff"/>
      <path id="Tracé_470" data-name="Tracé 470" d="M90.935,5.839a4.183,4.183,0,0,0,.052.668,2.135,2.135,0,0,0-.052-.668" transform="translate(203.53 1.873)" fill="#fff"/>
      <path id="Tracé_471" data-name="Tracé 471" d="M91.7,6.221c-.029-1.259.068-3.122-1.039.738-.366,2.647.777-1.421,1.039-.738" transform="translate(202.762 1.491)" fill="#fff"/>
      <path id="Tracé_472" data-name="Tracé 472" d="M596.993,4.337c-.658-4.819-1.367.853-1.3,1.232.767,4.415.272-3.837,1.3-1.232" transform="translate(1033.396 0.772)" fill="#fff"/>
      <path id="Tracé_473" data-name="Tracé 473" d="M642.8,12.232a2.761,2.761,0,0,1,.962,1.6c-.6-2.214-.874-2.483-.962-1.6" transform="translate(1115.171 3.773)" fill="#fff"/>
      <path id="Tracé_474" data-name="Tracé 474" d="M641.6,10.627c.016.091.25.2.573.328-.4-.508-.641-.73-.573-.328" transform="translate(1113.119 3.342)" fill="#fff"/>
      <path id="Tracé_475" data-name="Tracé 475" d="M645.083,14.126a13.9,13.9,0,0,1,.022-1.593,11.106,11.106,0,0,0-3.332-1.709c1.176,1.512,3.688,5.567,3.31,3.3" transform="translate(1113.089 3.472)" fill="#fff"/>
      <path id="Tracé_476" data-name="Tracé 476" d="M700.767,2.823c3.209-.079,5.884-.5,7.526-1.5-9.035-.189-9.177.5-7.526,1.5" transform="translate(1161.989 0.414)" fill="#fff"/>
      <path id="Tracé_477" data-name="Tracé 477" d="M17.526,89.139c-.489-.067-.952-.127-1.483-.209.12.135.223.269.324.4.4.009.806.02,1.188.016a1.52,1.52,0,0,0-.029-.211" transform="translate(35.907 32.771)" fill="#fff"/>
      <path id="Tracé_478" data-name="Tracé 478" d="M563.187,154.326c1.516,4.221,1.694.913,0,0" transform="translate(977.022 57.703)" fill="#fff"/>
      <path id="Tracé_479" data-name="Tracé 479" d="M309.829,168.466a4.392,4.392,0,0,0-.861.942c.266-.037.486.808.861-.942" transform="translate(536.021 62.238)" fill="#fff"/>
      <path id="Tracé_480" data-name="Tracé 480" d="M309.214,169.179c-.107.015-.22.184-.356.7a3.268,3.268,0,0,1,.356-.7" transform="translate(535.86 62.467)" fill="#fff"/>
      <path id="Tracé_481" data-name="Tracé 481" d="M308.988,169.711c-.058.227-.12.5-.188.888a3.1,3.1,0,0,1,.188-.888" transform="translate(535.77 62.637)" fill="#fff"/>
      <path id="Tracé_482" data-name="Tracé 482" d="M403.491,156.428a3.571,3.571,0,0,0,.874.139,1.038,1.038,0,0,0-.874-.139" transform="translate(700.006 58.362)" fill="#fff"/>
      <path id="Tracé_483" data-name="Tracé 483" d="M403.761,156.716c.622.357,1.03.955,1.337-.8a1.515,1.515,0,0,1-1.337.8" transform="translate(700.438 58.213)" fill="#fff"/>
      <path id="Tracé_484" data-name="Tracé 484" d="M638.252,147.409a14.208,14.208,0,0,1-.146-2.175c-.411-.922-.648-.762-.421,2.3.272.139,1.493,5.707.567-.124" transform="translate(1106.134 54.628)" fill="#fff"/>
      <path id="Tracé_485" data-name="Tracé 485" d="M637.755,145.323c.3.679.7,1.94,1.075,3.076-.758-4.755-1.052-4.4-1.075-3.076" transform="translate(1106.399 54.538)" fill="#fff"/>
      <path id="Tracé_486" data-name="Tracé 486" d="M638.551,146.946a4.971,4.971,0,0,0-1.34-.375c.541.35,1.056.638,1.34.375" transform="translate(1105.423 55.216)" fill="#fff"/>
      <path id="Tracé_487" data-name="Tracé 487" d="M638.5,146.748c-.9-.585-1.852-1.322-1.865.028a6.992,6.992,0,0,1,1.865-.028" transform="translate(1104.357 55.037)" fill="#fff"/>
      <path id="Tracé_488" data-name="Tracé 488" d="M638.34,147.318c-2.053-1.269-4.028-2.6-3.721-1.025a5.718,5.718,0,0,0,3.721,1.025" transform="translate(1100.575 54.896)" fill="#fff"/>
      <path id="Tracé_489" data-name="Tracé 489" d="M638.916,148.548a8.745,8.745,0,0,1-.295-1.957c-.948.124-1.894.347-2.875.4a11.05,11.05,0,0,0,3.17,1.556" transform="translate(1102.656 55.222)" fill="#fff"/>
      <path id="Tracé_490" data-name="Tracé 490" d="M637.556,148.59c-.425-.59-.609-.357-.742-.235.379.553.771,1.452.742.235" transform="translate(1104.807 55.74)" fill="#fff"/>
      <path id="Tracé_491" data-name="Tracé 491" d="M637.017,148.4a1.122,1.122,0,0,0-.292-.326c.117.448.192.419.292.326" transform="translate(1104.709 55.697)" fill="#fff"/>
      <path id="Tracé_492" data-name="Tracé 492" d="M773.185,139.212c2.147,6.317,1.6,2.315,1.227-.841-.593-2.383-1.71-1.107-1.227.841" transform="translate(1325.625 50.661)" fill="#fff"/>
      <path id="Tracé_493" data-name="Tracé 493" d="M752.272,137.268a6.759,6.759,0,0,0-.4,3.237c-.1-3.99.4-3.237.4-3.237" transform="translate(1278.012 50.646)" fill="#fff"/>
      <path id="Tracé_494" data-name="Tracé 494" d="M308.515,171.721c.314-.217.528,3.135.923-1.267.071-.8-.858.18-.923,1.267" transform="translate(535.231 62.782)" fill="#fff"/>
      <path id="Tracé_495" data-name="Tracé 495" d="M231.139,161.668c.029-.254-.246-.194-.525-.32.143.923.343.947.525.32" transform="translate(400.101 59.955)" fill="#fff"/>
      <path id="Tracé_496" data-name="Tracé 496" d="M178.829,152.581c.084-.074.162-.168.249-.232a1.485,1.485,0,0,1-.143-.465s-.071.473-.107.7" transform="translate(310.267 56.92)" fill="#fff"/>
      <path id="Tracé_497" data-name="Tracé 497" d="M723.063,142.536c1.2,3.129,1.085-.147,1.085-.147s-.9-.728-1.085.147" transform="translate(1213.706 53.783)" fill="#fff"/>
      <path id="Tracé_498" data-name="Tracé 498" d="M198.829,160.432c-.44.342-1.169,1.256-1.321,1.31.424.421.965-.874,1.321-1.31" transform="translate(342.634 59.661)" fill="#fff"/>
      <path id="Tracé_499" data-name="Tracé 499" d="M198.09,160.581c.026-.188-.02-.254-.1-.243a.389.389,0,0,1,.1.243" transform="translate(343.51 59.631)" fill="#fff"/>
      <path id="Tracé_500" data-name="Tracé 500" d="M197.916,160.466a.556.556,0,0,1,.23-.124c-.061-.042-.139.015-.23.124" transform="translate(343.384 59.628)" fill="#fff"/>
      <path id="Tracé_501" data-name="Tracé 501" d="M153.958,151.5c.285-1.753-2.4-6.147-2.778-3.812.136-1.914.175-3.211.463-6.011-.466,1.833.133-3.389-1.47,5.947-.586,3.406,2.591,11.246,3.785,3.875" transform="translate(335.954 53.646)" fill="#fff"/>
      <path id="Tracé_502" data-name="Tracé 502" d="M87.218,149.276c9.174.919,8.96,3.447,8.351-.959-3.2-.758-6.013-1.045-8.351.959" transform="translate(195.21 55.592)" fill="#fff"/>
      <path id="Tracé_503" data-name="Tracé 503" d="M764.432,10.412a2,2,0,0,0-.4-.155c-.139.087.078.128.4.155" transform="translate(1305.303 3.29)" fill="#fff"/>
      <path id="Tracé_504" data-name="Tracé 504" d="M751.518,10.775c-.962.151-2.05.38-3.086.573,1.328-.1,3.122-.242,3.086-.573" transform="translate(1270.486 3.456)" fill="#fff"/>
      <path id="Tracé_505" data-name="Tracé 505" d="M748.043,11.473a7.441,7.441,0,0,0,1.379-.264c-.933.132-1.639.223-1.379.264" transform="translate(1269.495 3.596)" fill="#fff"/>
      <path id="Tracé_506" data-name="Tracé 506" d="M5.419,7.723c.631-.206,1.25-.4,1.865-.572-.968-.16-1.69-.082-1.865.572" transform="translate(12.129 2.271)" fill="#fff"/>
      <path id="Tracé_507" data-name="Tracé 507" d="M5.522,12.008c-.1.382,1.749,2.577,2.351.329-.68-.314-1.894,1.252-2.351-.329" transform="translate(12.35 3.852)" fill="#fff"/>
      <path id="Tracé_508" data-name="Tracé 508" d="M6.245,12.28l.091-.092c-.039,0-.074.017-.091.092" transform="translate(13.977 3.909)" fill="#fff"/>
      <path id="Tracé_509" data-name="Tracé 509" d="M3.682,8.069c1.15,3.1,4.213-1.553,5.628-.242.742-2.759-5.764.744-5.628.242" transform="translate(8.237 2.167)" fill="#fff"/>
      <path id="Tracé_510" data-name="Tracé 510" d="M33.864,125.075a.659.659,0,0,0-.107.263c.039-.1.071-.17.107-.263" transform="translate(75.554 46.086)" fill="#fff"/>
      <path id="Tracé_511" data-name="Tracé 511" d="M805.349,120.286a7.037,7.037,0,0,0-5.832.071c3,.9,6.483,2.358,5.832-.071" transform="translate(1384.824 44.14)" fill="#fff"/>
      <path id="Tracé_512" data-name="Tracé 512" d="M798.757,116.248c-.107-.4.155-.629.547-.736-1.107-3.149-.942-1.5-.547.736" transform="translate(1382.453 41.973)" fill="#fff"/>
      <path id="Tracé_513" data-name="Tracé 513" d="M801.114,115.966c-.2-.744-1.593-1.082-2.4-.862.117.325.236.682.379,1.112.4-.983,2.121,2.822,2.017-.25" transform="translate(1383.036 42.434)" fill="#fff"/>
      <path id="Tracé_514" data-name="Tracé 514" d="M801.359,120.427a13.311,13.311,0,0,1,3.769-.748c-1.794-.409-4.242-1.016-3.769.748" transform="translate(1388.814 43.958)" fill="#fff"/>
      <path id="Tracé_515" data-name="Tracé 515" d="M804.25,119.583a13.881,13.881,0,0,0-1.768-.005c1.049.239,1.878.411,1.768.005" transform="translate(1391.46 44.051)" fill="#fff"/>
      <path id="Tracé_516" data-name="Tracé 516" d="M15.312,36.767q.894.145,1.736.318c4.326-.362,5.56-2.811-1.736-.318" transform="translate(34.271 13.149)" fill="#fff"/>
      <path id="Tracé_517" data-name="Tracé 517" d="M19.292,58.66l.039.024c2.37-.388,2.289-.4-.039-.024" transform="translate(43.179 21.514)" fill="#fff"/>
      <path id="Tracé_518" data-name="Tracé 518" d="M.246,60.278a22.675,22.675,0,0,0,7.059,1.066A9.6,9.6,0,0,0,.246,60.278" transform="translate(0.551 22.136)" fill="#fff"/>
      <path id="Tracé_519" data-name="Tracé 519" d="M24.4,49.857c.525.04.929.176,1.409-.271l0-.02a3.033,3.033,0,0,0-1.412.291" transform="translate(54.616 18.26)" fill="#fff"/>
      <path id="Tracé_520" data-name="Tracé 520" d="M3.9,58.954c.722.425,2.2.21,4.051-.243-1.188-1.5-2.263-3.7-4.051.243" transform="translate(8.727 20.929)" fill="#fff"/>
      <path id="Tracé_521" data-name="Tracé 521" d="M25.026,49.785a2.18,2.18,0,0,0-.9.1c.217.133.534.034.9-.1" transform="translate(53.992 18.34)" fill="#fff"/>
      <path id="Tracé_522" data-name="Tracé 522" d="M23.315,16.934c-.236.106-.46.2-.709.318,9.53,2.517,6.619-.061.709-.318" transform="translate(50.596 5.432)" fill="#fff"/>
      <path id="Tracé_523" data-name="Tracé 523" d="M16.6,15.566a1.3,1.3,0,0,0-.026-.876l-.036.007a2.3,2.3,0,0,1,.062.869" transform="translate(37.008 4.712)" fill="#fff"/>
      <path id="Tracé_524" data-name="Tracé 524" d="M22.025,17.021a4.915,4.915,0,0,0,.583-1.98,2.232,2.232,0,0,0-.583,1.98" transform="translate(49.264 4.825)" fill="#fff"/>
      <path id="Tracé_525" data-name="Tracé 525" d="M13.492,13.667c-.168-.005-.372-.015-.515-.015a.386.386,0,0,0,.515.015" transform="translate(29.045 4.379)" fill="#fff"/>
      <path id="Tracé_526" data-name="Tracé 526" d="M22.195,36.219c-1.418-.225-3.086-.424-5.094-.576a5.082,5.082,0,0,0,5.094.576" transform="translate(38.275 13.139)" fill="#fff"/>
      <path id="Tracé_527" data-name="Tracé 527" d="M17.959,20.1c4.061,3.557,8.355,3.34,11.926,2.331-.8-.8-4.55-3.326-11.926-2.331" transform="translate(40.196 6.373)" fill="#fff"/>
      <path id="Tracé_528" data-name="Tracé 528" d="M415.495,16.786a4.055,4.055,0,0,1-.826-1.647s.317,1.7.826,1.647" transform="translate(719.402 4.856)" fill="#fff"/>
      <path id="Tracé_529" data-name="Tracé 529" d="M232.376,10.487c.042.046.094.082.136.127-.078-.147-.126-.2-.136-.127" transform="translate(403.176 3.353)" fill="#fff"/>
      <path id="Tracé_530" data-name="Tracé 530" d="M398.041,20.03a3.288,3.288,0,0,1,.233.263c-.088-.28-.165-.334-.233-.263" transform="translate(690.6 6.416)" fill="#fff"/>
      <path id="Tracé_531" data-name="Tracé 531" d="M396.254,17.392a1.945,1.945,0,0,0,.81-1.564c0-.944-.379.044-.81,1.564" transform="translate(687.455 4.958)" fill="#fff"/>
      <path id="Tracé_532" data-name="Tracé 532" d="M245.065,14.991a1.5,1.5,0,0,1,.848-.37c-.275-.09-.563.008-.848.37" transform="translate(425.158 4.68)" fill="#fff"/>
      <path id="Tracé_533" data-name="Tracé 533" d="M391.473,17.771a4.807,4.807,0,0,1,.236,1.174s-.087-1.116-.236-1.174" transform="translate(679.204 5.7)" fill="#fff"/>
      <path id="Tracé_534" data-name="Tracé 534" d="M19.355,95.12c-.087.053-.178.1-.269.153.181-.049.366-.1.541-.148l-.272-.005" transform="translate(42.718 35.046)" fill="#fff"/>
      <path id="Tracé_535" data-name="Tracé 535" d="M4.762,69.309c.437.053.878.094,1.321.132a4.916,4.916,0,0,0,.44-.295c-.437.053-1.062.112-1.762.162" transform="translate(10.658 25.479)" fill="#fff"/>
      <path id="Tracé_536" data-name="Tracé 536" d="M27.554,94.46a14.609,14.609,0,0,1-5.366.063,31.31,31.31,0,0,1-8.219.1c5.11,1.716,9.617,2.478,13.863.535,1.069.112,2.043.156,2.973.177.324-.193.641-.4.955-.621a28.784,28.784,0,0,0-4.206-.252" transform="translate(31.267 34.836)" fill="#fff"/>
      <path id="Tracé_537" data-name="Tracé 537" d="M178.663,153.306a.223.223,0,0,1,.071.1c.155-1.259.706-5.535-.071-.1" transform="translate(309.974 56.513)" fill="#fff"/>
      <path id="Tracé_538" data-name="Tracé 538" d="M3.743,12.178c-.029.106.045.011.178-.185a1.265,1.265,0,0,1-.178.185" transform="translate(8.364 3.847)" fill="#fff"/>
      <path id="Tracé_539" data-name="Tracé 539" d="M178.543,153.1c.117-.05.23-.1.346-.157.016-.1.029-.19.042-.287-.1-.073-.24.11-.389.444" transform="translate(309.766 57.162)" fill="#fff"/>
      <path id="Tracé_540" data-name="Tracé 540" d="M29.374,120.09a10.121,10.121,0,0,1,1.237.136c1.7.034-2.8-1.444-4.43-.864.023.046.039.086.058.135,1.4.3,2.393.479,3.135.593" transform="translate(58.598 43.95)" fill="#fff"/>
      <path id="Tracé_541" data-name="Tracé 541" d="M12.5,14.21c8.649,1.734-.933-.445,3.883-.425a1.033,1.033,0,0,1-.175-.173c-3.62-.408-6.324-.8-3.708.6" transform="translate(25.64 4.245)" fill="#fff"/>
      <path id="Tracé_542" data-name="Tracé 542" d="M117.564,7.008a13.3,13.3,0,0,0,1.613.682c-.311-1.784-1.12-3.256-1.613-.682" transform="translate(263.13 1.803)" fill="#fff"/>
      <path id="Tracé_543" data-name="Tracé 543" d="M179.133,152.83c-.026.2-.039.316-.039.316-.79,5.408-.149,1.5-.609,5.328.265-1.216.5-2.151,1.117-6.061a4.476,4.476,0,0,0-.463.431l-.006-.013" transform="translate(309.64 57.089)" fill="#fff"/>
      <path id="Tracé_544" data-name="Tracé 544" d="M404.542,156.475a5.88,5.88,0,0,1-.369-.559c.152.865.272.9.369.559" transform="translate(701.228 58.213)" fill="#fff"/>
      <path id="Tracé_545" data-name="Tracé 545" d="M393.2,160.95c0-.169-5.735,3.8-9.038,4.84,4.53,2.128,9.025-2.96,9.038-4.84" transform="translate(665.862 59.826)" fill="#fff"/>
      <path id="Tracé_546" data-name="Tracé 546" d="M320.775,154.483h0c0,.059,0,.044,0,0" transform="translate(556.55 57.753)" fill="#fff"/>
      <path id="Tracé_547" data-name="Tracé 547" d="M301.807,170.261a14.068,14.068,0,0,1-2.969,2.125c1.577-.38,2.532-.984,2.969-2.125" transform="translate(518.325 62.814)" fill="#fff"/>
      <path id="Tracé_548" data-name="Tracé 548" d="M385.578,164.645c-.091-.044-.181-.07-.275-.119a9.841,9.841,0,0,0-1.774.1c.34.374,1.088.326,2.05.022" transform="translate(665.285 60.972)" fill="#fff"/>
      <path id="Tracé_549" data-name="Tracé 549" d="M8.512,69.507a31.294,31.294,0,0,1-4.948-.977c-1.865,1.216,2.15,1.178,4.948.977" transform="translate(6.909 25.263)" fill="#fff"/>
      <path id="Tracé_550" data-name="Tracé 550" d="M184.835,155.367l0,0c-.071.5-.052.378,0,0" transform="translate(320.609 58.037)" fill="#fff"/>
      <path id="Tracé_551" data-name="Tracé 551" d="M150.426,146.18c-.149.132-.295.235-.44.353.214.2.363.124.44-.353" transform="translate(335.697 55.09)" fill="#fff"/>
      <path id="Tracé_552" data-name="Tracé 552" d="M228.161,161.095c-1.195-.279-2.341-.551-3.471-.818.784,2.5,2.966,5.315,3.471.818" transform="translate(389.696 59.612)" fill="#fff"/>
      <path id="Tracé_553" data-name="Tracé 553" d="M268.312,162.256l-.023.026c0,.048.01.034.023-.026" transform="translate(465.491 60.246)" fill="#fff"/>
      <path id="Tracé_554" data-name="Tracé 554" d="M804.7,118.846c-.266.041-.46.067-.687.1a1.446,1.446,0,0,0,.687-.1" transform="translate(1394.898 43.787)" fill="#fff"/>
      <path id="Tracé_555" data-name="Tracé 555" d="M805.887,119.022a17.962,17.962,0,0,1-2.244-.4c-.6.7-1.192.913,2.244.4" transform="translate(1393.03 43.717)" fill="#fff"/>
      <path id="Tracé_556" data-name="Tracé 556" d="M695.324,146.253q.665.305,1.325.612c-.356-1.823-.819-1.051-1.325-.612" transform="translate(1151.621 54.939)" fill="#fff"/>
      <path id="Tracé_557" data-name="Tracé 557" d="M429.238,10.725a2.7,2.7,0,0,0,.253-1,8.938,8.938,0,0,1-.253,1" transform="translate(744.725 3.119)" fill="#fff"/>
      <path id="Tracé_558" data-name="Tracé 558" d="M696.071,146.24c-.36-.165-.719-.329-1.081-.491.369.925.738.79,1.081.491" transform="translate(1150.873 54.952)" fill="#fff"/>
      <path id="Tracé_559" data-name="Tracé 559" d="M135.269,145.342c-.337,1.474.586,1.7,0,0" transform="translate(302.586 54.821)" fill="#fff"/>
      <path id="Tracé_560" data-name="Tracé 560" d="M411,157.9s2.895,1.309,2.866-1.446c.036-.143-.052-.25-.1-.368C412.027,155.909,411,157.9,411,157.9" transform="translate(712.869 58.263)" fill="#fff"/>
      <path id="Tracé_561" data-name="Tracé 561" d="M564.028,154.359a2.023,2.023,0,0,0-1.218-.085c.457.342.891.415,1.218.085" transform="translate(976.368 57.67)" fill="#fff"/>
      <path id="Tracé_562" data-name="Tracé 562" d="M640.6,148.629c-.706,1.16-.839,1.725,0,0" transform="translate(1110.384 55.876)" fill="#fff"/>
      <path id="Tracé_563" data-name="Tracé 563" d="M337.517,156.073l-.019-.012c-.016.388,0,.306.019.012" transform="translate(585.559 58.259)" fill="#fff"/>
      <path id="Tracé_564" data-name="Tracé 564" d="M15.463,99.933c-.858.081-2.056.242-3.74.539,1.428-.2,2.639-.376,3.74-.539" transform="translate(26.238 36.828)" fill="#fff"/>
      <path id="Tracé_565" data-name="Tracé 565" d="M10.322,105.79c8.886-.713,12.425,1.627,10.913-.619a37.639,37.639,0,0,0-10.913.619" transform="translate(23.103 38.716)" fill="#fff"/>
      <path id="Tracé_566" data-name="Tracé 566" d="M11.509,101.683a24.465,24.465,0,0,0-2.762.123c.949-.02,1.865-.066,2.762-.123" transform="translate(19.577 37.464)" fill="#fff"/>
      <path id="Tracé_567" data-name="Tracé 567" d="M25.181,114.472a34.791,34.791,0,0,0-4.831.9,8.881,8.881,0,0,0,4.831-.9" transform="translate(45.547 42.195)" fill="#fff"/>
      <path id="Tracé_568" data-name="Tracé 568" d="M11.7,92.876a22.791,22.791,0,0,0,7.341,2.256c-1.943-.651-3.973-1.438-6.107-2.27-.411.005-.816.013-1.234.015" transform="translate(26.194 34.256)" fill="#fff"/>
      <path id="Tracé_569" data-name="Tracé 569" d="M18.891,71.873c-.1.055-.185.1-.282.161,6.473-.711,4.187-.483.282-.161" transform="translate(41.65 26.373)" fill="#fff"/>
      <path id="Tracé_570" data-name="Tracé 570" d="M12.99,120.808l-.006.034c.243.042.233.028.006-.034" transform="translate(29.061 44.508)" fill="#fff"/>
      <path id="Tracé_571" data-name="Tracé 571" d="M15.776,72.186c2.276,1.083,6.415.45,6.651-.219-3.164.239-6.34.424-6.651.219" transform="translate(35.31 26.526)" fill="#fff"/>
      <path id="Tracé_572" data-name="Tracé 572" d="M40.605,127.533a4.946,4.946,0,0,1-.521.666c-.142,1.3.185.52.521-.666" transform="translate(89.638 47.02)" fill="#fff"/>
      <path id="Tracé_573" data-name="Tracé 573" d="M10.571,92.051c.706,0,1.4.021,2.076.058l-.816-.306c-.414.077-.829.147-1.26.248" transform="translate(23.66 33.827)" fill="#fff"/>
      <path id="Tracé_574" data-name="Tracé 574" d="M32.257,125.208c-1.891.39,9.313.4,3.339-1.646-.2-.065-.411-.128-.618-.193-1.389.281-2.484.862-2.72,1.838" transform="translate(71.709 45.504)" fill="#fff"/>
      <path id="Tracé_575" data-name="Tracé 575" d="M11.3,120.325c2.72.585,4.861,1.088,5.473,1.256a25.122,25.122,0,0,0,.34-2.505c-.6-1.68-3.287.169-5.813,1.249" transform="translate(25.283 43.7)" fill="#fff"/>
      <path id="Tracé_576" data-name="Tracé 576" d="M31.422,123.57c-.149.1-.288.189-.431.285.1.02.233-.049.431-.285" transform="translate(69.364 45.532)" fill="#fff"/>
      <path id="Tracé_577" data-name="Tracé 577" d="M39.349,125.327c.026.493.032,1.078.026,1.734.142-1.193.12-1.7-.026-1.734" transform="translate(88.07 46.218)" fill="#fff"/>
      <path id="Tracé_578" data-name="Tracé 578" d="M40.1,125.508c-.016-.284-.039-.534-.071-.746-.259.149-.618.894-1.017,2.57.505-1.111.9-1.866,1.088-1.824" transform="translate(87.318 46.031)" fill="#fff"/>
      <path id="Tracé_579" data-name="Tracé 579" d="M17.155,122.7a26.12,26.12,0,0,0-4.213-.932c-.062,1.532.635,2.227,4.213.932" transform="translate(28.96 44.901)" fill="#fff"/>
      <path id="Tracé_580" data-name="Tracé 580" d="M14.441,120.085c-1.409-.3-2.969-.627-4.55-.938.693,2.157,2.571,1.783,4.55.938" transform="translate(22.138 43.935)" fill="#fff"/>
      <path id="Tracé_581" data-name="Tracé 581" d="M26.477,120.866c-5.689.981-16.288-1.761-19.74.479,12.428,4.789,12.438-.1,20.086.844a11.23,11.23,0,0,1,.146-1.228c-.113-.02-.262-.048-.492-.1" transform="translate(15.079 44.449)" fill="#fff"/>
      <path id="Tracé_582" data-name="Tracé 582" d="M18.892,71.751a11.63,11.63,0,0,0,2.846-.349c-.366-.19-.693-.371-1.133-.581-.521.271-1.095.582-1.713.93" transform="translate(42.284 26.105)" fill="#fff"/>
      <path id="Tracé_583" data-name="Tracé 583" d="M778.018,54.011a2.242,2.242,0,0,0,.46.491c.787-.054,1.626-.1,2.51-.132a23.487,23.487,0,0,0-2.969-.359" transform="translate(1336.705 19.904)" fill="#fff"/>
      <path id="Tracé_584" data-name="Tracé 584" d="M775.109,49.075c-3.19.339-5.272.641-6.308.832a1.825,1.825,0,0,0,.136.151c1.082-.114,3.131-.405,6.156-.946l.045-.029-.029-.008" transform="translate(1316.076 18.09)" fill="#fff"/>
      <path id="Tracé_585" data-name="Tracé 585" d="M770.764,49.083l0,0h0l-.006,0,.006,0" transform="translate(1320.456 18.081)" fill="#fff"/>
      <path id="Tracé_586" data-name="Tracé 586" d="M26.071,65.527c-.081.007-.165.008-.246.012a2.087,2.087,0,0,1,.266.123.586.586,0,0,0-.019-.135" transform="translate(57.801 24.143)" fill="#fff"/>
      <path id="Tracé_587" data-name="Tracé 587" d="M778.935,54.3c.716.125,1.47.273,2.263.437.968-.165,1.982-.321,3.089-.469-1.949-.049-3.727-.029-5.352.032" transform="translate(1338.758 19.988)" fill="#fff"/>
      <path id="Tracé_588" data-name="Tracé 588" d="M645.818,21.769a15.379,15.379,0,0,0-2.548.576,4.613,4.613,0,0,0,2.548-.576" transform="translate(1115.783 6.983)" fill="#fff"/>
      <path id="Tracé_589" data-name="Tracé 589" d="M770.792,49.071l-.039,0,.022.005.016-.009" transform="translate(1320.445 18.079)" fill="#fff"/>
      <path id="Tracé_590" data-name="Tracé 590" d="M648.564,21.3c-.01-.054-.023-.115-.032-.172a1.5,1.5,0,0,0-1.6.573,1.57,1.57,0,0,1,1.632-.4" transform="translate(1043.31 6.756)" fill="#fff"/>
      <path id="Tracé_591" data-name="Tracé 591" d="M791.3,55.452l-.324-.092c-.988.083-2,.192-3.015.313-1.422-.259-2.779-.539-4.045-.8l1.3-.387a4.968,4.968,0,0,0-1.616.321l-.713-.147c-1.107.188-2.115.395-3.011.631.139.053.317.1.47.152-.246-.038-.476-.071-.693-.1a14.887,14.887,0,0,0-1.47.482,13.193,13.193,0,0,0,1.457.353c.269-.085.567-.177.881-.273a1.481,1.481,0,0,0-.162.4c.489.078,1.03.149,1.625.214l-1.674.262a4.469,4.469,0,0,0,1.062,2.63c1.107-.246,2.4-.573,3.824-.959a6.247,6.247,0,0,0,5.349-1.771q1.428-.077,2.986-.23c-.832-.073-1.645-.172-2.448-.28.094-.1.188-.2.282-.3.165-.094.291-.162.469-.264-.068-.021-.123-.034-.187-.054.074-.088.149-.165.227-.259l-.175.013.2-.128c-.1.046-.207.088-.311.137l-.249.02a.173.173,0,0,0-.013.108l-.026.012m-8.545-.045c-.12-.032-.237-.062-.347-.083l.589-.178a1.483,1.483,0,0,0-.243.262" transform="translate(1337.07 20.13)" fill="#fff"/>
      <path id="Tracé_592" data-name="Tracé 592" d="M770.773,49.082l-.019.022.061-.012-.042-.011" transform="translate(1320.447 18.083)" fill="#fff"/>
      <path id="Tracé_593" data-name="Tracé 593" d="M781.136,56.37a2.22,2.22,0,0,1,.046-.475c-.259-.042-.492-.085-.719-.128-4.277,1.352-2.879,1.161.674.6" transform="translate(1336.246 20.557)" fill="#fff"/>
      <path id="Tracé_594" data-name="Tracé 594" d="M767.553,14.955c-4.857.943-8.027,1.467-9.744,1.636.719.265,3.74-.092,9.744-1.636" transform="translate(1291.476 4.797)" fill="#fff"/>
      <path id="Tracé_595" data-name="Tracé 595" d="M776.168,54.558a38.858,38.858,0,0,0,4.264-1.85c.136-.087.269-.16.408-.251-1.192.432-2.3.878-3.31,1.322-.5.292-.955.549-1.363.779" transform="translate(1332.565 19.349)" fill="#fff"/>
      <path id="Tracé_596" data-name="Tracé 596" d="M775.082,54.967c.081-.081.185-.182.272-.268a5.26,5.26,0,0,0-.525.28c.078,0,.168-.009.253-.012" transform="translate(1329.57 20.155)" fill="#fff"/>
      <path id="Tracé_597" data-name="Tracé 597" d="M13.382,13.715c.981.1,1.975.18,2.924.221-.152-.493-.9-.771-2.924-.221" transform="translate(29.951 4.303)" fill="#fff"/>
      <path id="Tracé_598" data-name="Tracé 598" d="M24.83,39.113a3.334,3.334,0,0,0,.606-.246c-1.269-1.051-3.575-2.585-7.972-.927a36.736,36.736,0,0,0,5.006,1.278,17,17,0,0,0,2.361-.106" transform="translate(39.085 13.724)" fill="#fff"/>
      <path id="Tracé_599" data-name="Tracé 599" d="M22.426,56.568a23.023,23.023,0,0,0,4.7,2.451,7.8,7.8,0,0,0,1.341-.317,23.616,23.616,0,0,1-6.039-2.134" transform="translate(50.194 20.87)" fill="#fff"/>
      <path id="Tracé_600" data-name="Tracé 600" d="M793.533,115.292c.774-.065,1.6-.137,2.451-.214q-1.676.077-3.17.048c.233.055.479.111.719.166" transform="translate(1369.822 42.401)" fill="#fff"/>
      <path id="Tracé_601" data-name="Tracé 601" d="M14.067,13.425a3.469,3.469,0,0,1-1.159-.21c-.023.009-.045.015-.065.024a2.31,2.31,0,0,0,.259.38l.8.087a1.546,1.546,0,0,0,.168-.281" transform="translate(28.745 4.239)" fill="#fff"/>
      <path id="Tracé_602" data-name="Tracé 602" d="M13.136,13.687c.2.005.372.007.618.018.065-.02.117-.029.178-.046-.23-.022-.46-.048-.69-.073a.62.62,0,0,1-.107.1" transform="translate(29.401 4.358)" fill="#fff"/>
      <path id="Tracé_603" data-name="Tracé 603" d="M795.586,86.058c-.343-.063-.687-.123-1.02-.178-.133.066-.269.131-.4.2.476-.007.93-.022,1.422-.017" transform="translate(1372.843 31.643)" fill="#fff"/>
      <path id="Tracé_604" data-name="Tracé 604" d="M603.2,12.981c-.084,0-.165,0-.246,0a10.6,10.6,0,0,0-6.182-1.536c2.257,2.3,5.094,4.682,6.428,1.54" transform="translate(1034.681 3.665)" fill="#fff"/>
      <path id="Tracé_605" data-name="Tracé 605" d="M799.556,86.107c.579-.281,1.166-.563,1.771-.841a38.739,38.739,0,0,0-9.394.491,27.717,27.717,0,0,1,7.622.35" transform="translate(1367.852 31.396)" fill="#fff"/>
      <path id="Tracé_606" data-name="Tracé 606" d="M792.606,86.02c-.754.186-1.457.387-2.13.593.152.049.3.09.459.147a9.315,9.315,0,0,1,1.671-.74" transform="translate(1364.589 31.704)" fill="#fff"/>
      <path id="Tracé_607" data-name="Tracé 607" d="M791.887,86.62q3.2-.2,7.146-.481l.227-.111a51.932,51.932,0,0,0-7.373.592" transform="translate(1367.747 31.704)" fill="#fff"/>
      <path id="Tracé_608" data-name="Tracé 608" d="M769.2,45.1l.078-.041-.094.036.016.005" transform="translate(1316.927 16.602)" fill="#fff"/>
      <path id="Tracé_609" data-name="Tracé 609" d="M771.064,44.494a4.443,4.443,0,0,1-1.991.141.917.917,0,0,0-.087.145c.288.112.586.238.891.378.375-.2.78-.432,1.188-.664" transform="translate(1316.488 16.399)" fill="#fff"/>
      <path id="Tracé_610" data-name="Tracé 610" d="M771.57,44.05c-.619.094-1.2.173-1.742.236l-.479-.1c-.048.026-.091.054-.136.081.175.011.34.018.522.03-.139.017-.295.038-.427.053q.743.026,1.622.074c.21-.12.424-.248.641-.375" transform="translate(1316.996 16.232)" fill="#fff"/>
      <path id="Tracé_611" data-name="Tracé 611" d="M29.021,65.72c-.21.659-.44,1.018-.712,1.152a1.791,1.791,0,0,1-.732.5.978.978,0,0,0,.4-.029,5.844,5.844,0,0,0,.531-.4,4.047,4.047,0,0,0,.518-1.219l-.01,0" transform="translate(61.722 24.234)" fill="#fff"/>
      <path id="Tracé_612" data-name="Tracé 612" d="M769.109,45.039c.062.026.123.057.188.083l.042-.016-.23-.067" transform="translate(1316.765 16.594)" fill="#fff"/>
      <path id="Tracé_613" data-name="Tracé 613" d="M768.962,44.873a.543.543,0,0,0-.013.07c.165.045.347.1.515.148-.165-.07-.34-.151-.5-.218" transform="translate(1316.407 16.534)" fill="#fff"/>
      <path id="Tracé_614" data-name="Tracé 614" d="M26.771,66.523c-.052.079-.107.153-.162.226a6.14,6.14,0,0,0,2.14.448,5.887,5.887,0,0,1-1.979-.674" transform="translate(59.556 24.517)" fill="#fff"/>
      <path id="Tracé_615" data-name="Tracé 615" d="M770.493,45.451c-.1,0-.214-.011-.314-.013a18.312,18.312,0,0,1-1.979.386c.554-.024,1.088-.045,1.69-.077.2-.1.388-.188.6-.3" transform="translate(1314.733 16.744)" fill="#fff"/>
      <path id="Tracé_616" data-name="Tracé 616" d="M21.045,91.351c-1.324-.152-2.795-.312-4.42-.466.308.119.615.238.916.358q2.055.172,3.753.268c-.084-.053-.168-.106-.249-.16" transform="translate(37.21 33.495)" fill="#fff"/>
      <path id="Tracé_617" data-name="Tracé 617" d="M27.271,67.064a2.232,2.232,0,0,0,.988-.087,1.8,1.8,0,0,1-.191-.041,2.569,2.569,0,0,1-.8.128" transform="translate(61.038 24.662)" fill="#fff"/>
      <path id="Tracé_618" data-name="Tracé 618" d="M469.582,20.307c.366.046.813.1,1.318.185-.223-3.256-.784-1.66-1.318-.185" transform="translate(814.625 5.962)" fill="#fff"/>
      <path id="Tracé_619" data-name="Tracé 619" d="M768.551,45.954c.165-.018.3-.029.469-.049.372-.082.777-.189,1.166-.283-.353.021-.742.048-1.079.066-.191.092-.379.184-.557.265" transform="translate(1315.516 16.811)" fill="#fff"/>
      <path id="Tracé_620" data-name="Tracé 620" d="M769.831,45.546l.01-.008-.217.013-.11.036c.11-.015.2-.025.318-.041" transform="translate(1317.672 16.777)" fill="#fff"/>
      <path id="Tracé_621" data-name="Tracé 621" d="M28.814,65.644c-1.133.157-2.338.295-3.6.387.165-.032.337-.062.5-.094-.56.065-1.137.123-1.726.168-.24.011-.489.017-.735.024l-.045.026-.136.007c.026.009.055.017.081.025-.168.1-.346.2-.528.295.34-.053.674-.1,1-.16a13.609,13.609,0,0,0,2.565.485,16.3,16.3,0,0,0,3.177-.452c-.1-.085-.2-.158-.3-.248-.074-.174-.165-.3-.243-.462" transform="translate(50.626 24.2)" fill="#fff"/>
      <path id="Tracé_622" data-name="Tracé 622" d="M769.3,41.354h-.075c-.1.153.188.4.774.738q.544-.055,1.117-.137c-.638-.222-1.247-.423-1.817-.6" transform="translate(1316.979 15.242)" fill="#fff"/>
      <path id="Tracé_623" data-name="Tracé 623" d="M769.865,41.844c.078-.021.155-.045.233-.067-.1.016-.2.028-.3.044l.072.024" transform="translate(1318.299 15.392)" fill="#fff"/>
      <path id="Tracé_624" data-name="Tracé 624" d="M769.888,41.915c.868-.135,1.778-.314,2.727-.556-.33-.008-.628-.008-.945-.012-.618.219-1.211.4-1.781.568" transform="translate(1318.509 15.238)" fill="#fff"/>
      <path id="Tracé_625" data-name="Tracé 625" d="M753.093,14.849l.036-.012h0l-.039.013" transform="translate(1280.918 4.759)" fill="#fff"/>
      <path id="Tracé_626" data-name="Tracé 626" d="M769.627,44.545c.194-.054.392-.12.6-.2L770,44.334c-.129.075-.246.139-.372.211" transform="translate(1317.925 16.335)" fill="#fff"/>
      <path id="Tracé_627" data-name="Tracé 627" d="M753.931,14.24l0,.009c.489-.176,1.535-.555,1.535-.555l-1.532.545" transform="translate(1282.787 4.393)" fill="#fff"/>
      <path id="Tracé_628" data-name="Tracé 628" d="M769.209,45.084l.194-.073L769.374,45l-.165.087" transform="translate(1316.989 16.578)" fill="#fff"/>
      <path id="Tracé_629" data-name="Tracé 629" d="M770.3,42.486c.252-.157.473-.3.741-.464-.2-.07-.375-.128-.564-.194q-.5.137-.962.247c.227.124.492.263.784.411" transform="translate(1317.683 15.416)" fill="#fff"/>
      <path id="Tracé_630" data-name="Tracé 630" d="M775.167,44.191l.479.1c-.136.028-.246.062-.375.091a1.638,1.638,0,0,0,.256.3c-.473-.017-.917-.028-1.334-.033-.058.018-.1.037-.159.054l.11.036-.159-.018c-.21.067-.411.135-.592.2-.411-.088-.8-.165-1.179-.239a8.138,8.138,0,0,0-2.27.543q1.03.091,2.3.23c-.476.288-.729.568-.771.806-.2.005-.421.008-.612.015.188,0,.418.005.612.007l0,.007c-.742.021-1.425.044-2.04.077a9.576,9.576,0,0,0,2.373.375,2.355,2.355,0,0,0,.486.1,44.133,44.133,0,0,1-6.159-.1c-.375.094-.573.189-.605.28a3.863,3.863,0,0,0,.411.193,3.491,3.491,0,0,1,.752.152,38.494,38.494,0,0,0,5.832-.135,4.748,4.748,0,0,1,.327-.357,9.237,9.237,0,0,0,1.331-.1c-.434.018-.884.04-1.285.053.029-.029.045-.05.074-.081a15.047,15.047,0,0,0,2.837-.374l.353.015c.055-.013.1-.021.152-.036-.1-.005-.221-.017-.324-.021.1-.024.194-.044.291-.07-.978-.022-1.884-.033-2.73-.03.194-.168.418-.347.664-.54.755.1,1.555.2,2.409.326a.6.6,0,0,1-.023-.305c-.628-.172-1.227-.326-1.807-.468.087-.063.181-.131.272-.2.5.18,1.014.376,1.548.6a1.15,1.15,0,0,1,.1-.215c-.415-.16-.819-.3-1.2-.405l.45-.028a2.767,2.767,0,0,0,.842.289,2.1,2.1,0,0,1,.46-.4l.282-.028c-.072,0-.149-.007-.221-.008.039-.026.084-.05.126-.075-.664-.041-1.289-.071-1.868-.092.146-.1.285-.2.444-.314l1.564.326a6.923,6.923,0,0,1,2.979-.593l-.758.456.379-.057q.282-.192.554-.4c.084,0,.188.011.275.013.146-.092.288-.182.44-.287l-.029-.013c-.12,0-.22.005-.337.005.045-.037.094-.07.136-.108l0,0c-.065.041-.123.073-.188.112a28.5,28.5,0,0,0-4.754.366c.661-.452,1.441-.956,2.28-1.487-2.888-.736-3.86.474-3.4,1.494m.515.625-.288,0c.052-.037.1-.075.159-.112.039.037.084.074.129.11" transform="translate(1308.755 15.692)" fill="#fff"/>
      <path id="Tracé_631" data-name="Tracé 631" d="M769.174,45.114l.139.063c.032-.009.065-.017.1-.028l-.2-.057-.035.021" transform="translate(1316.911 16.614)" fill="#fff"/>
      <path id="Tracé_632" data-name="Tracé 632" d="M769.55,45.485a.351.351,0,0,1-.058-.029c-.175-.011-.347-.025-.515-.034l-.068.036.641.028" transform="translate(1316.318 16.735)" fill="#fff"/>
      <path id="Tracé_633" data-name="Tracé 633" d="M615.026,10.3c.233-.015.463-.03.693-.046-.23-.232-.476-.31-.693.046" transform="translate(1067.014 3.226)" fill="#fff"/>
      <path id="Tracé_634" data-name="Tracé 634" d="M29.945,66.909a1.361,1.361,0,0,1-.706-.223c-.356.7-.839.029-1.742-.8-.178-.022-.359-.054-.541-.087-.068.188-.142.365-.223.534,1.1.341,1.911.814,2.539.967a2,2,0,0,0,.674-.391" transform="translate(59.833 24.262)" fill="#fff"/>
      <path id="Tracé_635" data-name="Tracé 635" d="M624.6,15.973c.181.12.356.221.541.351-.032-.213-.236-.314-.541-.351" transform="translate(1083.644 5.124)" fill="#fff"/>
      <path id="Tracé_636" data-name="Tracé 636" d="M581.051,153.53c-.91.3-1.833.586-2.769.823-.016-.121,3.458,1.6,3.41-1.043-.039.013-.074.026-.117.04a.784.784,0,0,1-.525.181" transform="translate(1002.962 57.377)" fill="#fff"/>
      <path id="Tracé_637" data-name="Tracé 637" d="M615.161,10.477c-.075-.571-.389-1.936-.065.18.032-.073.065-.129.094-.182l-.029,0" transform="translate(1066.94 3.052)" fill="#fff"/>
      <path id="Tracé_638" data-name="Tracé 638" d="M22.019,69.978c-.531.153-1.088.308-1.671.46.321.02.693.05.994.065a4.005,4.005,0,0,0,.677-.524" transform="translate(45.543 25.788)" fill="#fff"/>
      <path id="Tracé_639" data-name="Tracé 639" d="M781.6,33.681c-.657.143-1.642.306-2.833.555,1.412.49,2.969.1,2.833-.555" transform="translate(1338.375 10.803)" fill="#fff"/>
      <path id="Tracé_640" data-name="Tracé 640" d="M608.957,8.729l.01,0c-.233-1.615-.178-1.2-.01,0" transform="translate(1056.294 2.459)" fill="#fff"/>
      <path id="Tracé_641" data-name="Tracé 641" d="M769.124,16.191a23.179,23.179,0,0,0-6.914,4.015,9.456,9.456,0,0,0,6.914-4.015" transform="translate(1301.327 5.194)" fill="#fff"/>
      <path id="Tracé_642" data-name="Tracé 642" d="M679.357.619c.366-.042.706-.074,1.043-.106a2.892,2.892,0,0,0-1.043.106" transform="translate(1115.884 0.163)" fill="#fff"/>
      <path id="Tracé_643" data-name="Tracé 643" d="M179.492,152.989a4.85,4.85,0,0,1-1.082.334c-.835,6.824.311,1.374,1.082-.334" transform="translate(308.996 57.274)" fill="#fff"/>
      <path id="Tracé_644" data-name="Tracé 644" d="M774.509,41.883c.094-.032.194-.057.282-.092-1.761-.178-1.551-.1-.282.092" transform="translate(1326.623 15.362)" fill="#fff"/>
      <path id="Tracé_645" data-name="Tracé 645" d="M23.534,95.123q.767-.1,1.506-.213c-2.014-.527-4.226-1.5-6.771-2.327-1.548.083-3.183.174-4.9.247,3.792.8,7.118,1.848,10.165,2.293" transform="translate(29.922 34.158)" fill="#fff"/>
      <path id="Tracé_646" data-name="Tracé 646" d="M11.212,92.035q1.443.551,2.824,1.091,2.152-.03,4.161-.12a45.806,45.806,0,0,0-6.985-.971" transform="translate(25.095 33.928)" fill="#fff"/>
      <path id="Tracé_647" data-name="Tracé 647" d="M487,19.457c.884,0,1.729.42,2.422-.853-1.163-1.355-2.6-1.993-2.422.853" transform="translate(844.719 5.599)" fill="#fff"/>
      <path id="Tracé_648" data-name="Tracé 648" d="M791.984,116.685c.962-.017,2.409-.085,4.414-.213.058.032.081.058.133.088a21.668,21.668,0,0,0,2.127-1.253c-1.48.181-2.739.345-3.824.494.165.033.294.061.463.094-1.328.273-2.387.536-3.313.79" transform="translate(1367.964 42.514)" fill="#fff"/>
      <path id="Tracé_649" data-name="Tracé 649" d="M493.235,4.024c.644-.11,1.35-.221,2.127-.332-.946-.9-1.664-.563-2.127.332" transform="translate(855.58 1.015)" fill="#fff"/>
      <path id="Tracé_650" data-name="Tracé 650" d="M20.743,93.635c-.12-.074-.236-.152-.366-.221a17.755,17.755,0,0,0-1.946.46c.823-.122,1.6-.206,2.312-.239" transform="translate(41.252 34.424)" fill="#fff"/>
      <path id="Tracé_651" data-name="Tracé 651" d="M569.2,7.2l.359-.02c-.233-.1-.372-.1-.359.02" transform="translate(987.541 2.281)" fill="#fff"/>
      <path id="Tracé_652" data-name="Tracé 652" d="M498.169,8.372c.67-1.117,1.428-2.98,2.238-6.832-2.267,2.568-2.918,4.385-2.238,6.832" transform="translate(863.66 0.494)" fill="#fff"/>
      <path id="Tracé_653" data-name="Tracé 653" d="M19.464,94.672c.149.02.275.042.414.063-.091-.055-.175-.1-.266-.16-.049.034-.1.062-.149.1" transform="translate(43.564 34.846)" fill="#fff"/>
      <path id="Tracé_654" data-name="Tracé 654" d="M21.694,93.762c-1.428.211-3.012.507-4.721.771a12.556,12.556,0,0,0,1.486.312c1.192-.438,2.27-.8,3.235-1.083" transform="translate(37.989 34.564)" fill="#fff"/>
      <path id="Tracé_655" data-name="Tracé 655" d="M528.494,9.788c.016-.248.032-.5.049-.74-.237-2.043-.188-.995-.049.74" transform="translate(916.739 2.543)" fill="#fff"/>
      <path id="Tracé_656" data-name="Tracé 656" d="M478.433,17.473c.042.975.1,2.075.146,3.146a1.576,1.576,0,0,1,.139.4s-.418-6.614-.285-3.542" transform="translate(830.027 5.344)" fill="#fff"/>
      <path id="Tracé_657" data-name="Tracé 657" d="M796.2,117.893c-.392-.49-2.037-1.157-2.613-.633q.972.25,2.332.666c.09-.011.194-.024.282-.033" transform="translate(1371.556 43.15)" fill="#fff"/>
      <path id="Tracé_658" data-name="Tracé 658" d="M803.972,115.594c.01.037.01.065.02.1.146-.034.162-.069-.02-.1" transform="translate(1394.795 42.588)" fill="#fff"/>
      <path id="Tracé_659" data-name="Tracé 659" d="M2198.8,158.165c-.654.186-4.6.344-5.372-.123,0,1.1-1.471.452-1.2,1.714a5.417,5.417,0,0,1-4.1.766,16.891,16.891,0,0,0,.451-2.145c-.085-.386-2.6-2.206-2.144-.115a14.611,14.611,0,0,0,.84,1.985,9.073,9.073,0,0,1-2.541-1.726c-3.039,1.619-5.615,1.527-12.14,2.413a.415.415,0,0,1,.066.144c-.11-.042-.2-.071-.3-.111-.67.092-1.332.182-2.089.3a1.092,1.092,0,0,1,.12-.987c-.118-.036-.221-.068-.328-.1a.764.764,0,0,0,.233-.192c1.737-.517,3.533-1.641,2.858-2.048a32.047,32.047,0,0,0-3.214,1.111c-.035-.027-.063-.053-.1-.082-.246.159-.5.324-.739.464-.273-.138-.577.014-.881.326a.784.784,0,0,0-.525.064.737.737,0,0,0,.224.229c-.035.016-.074.04-.109.056a.581.581,0,0,0,.084.041c-1.345,1.834-2.478,5.884-.675.207-4.283,1.79-6.8.612-1.22-1.258-2.174.047-1.258-.3,2.407-.916-.413-.1-.8-.2-1.174-.293.788-.018,1.638-.036,2.571-.052-.317-.088-.621-.174-.924-.26-.741.075-1.436.144-2.09.2-1.239-.315-2.242-.586-3.055-.821a28.861,28.861,0,0,0,4.537.446c-1.77-.509-3.307-1-4.6-1.406,1.51.177,3.641.5,6.236.957-7.376-2.3-11.216-3.664-8.617-3.244.246-5.073,3.553-3.675,8.281-5.285a11.485,11.485,0,0,1,3.424-1.232,9.616,9.616,0,0,1-3.763-2.019c-4.723-1.871-3.993,7.328-3.449-2.009-2.467-1.273-2.721-9.875,3.539-3.863,2.169-1.451,4.04-8.118,9.436-2.2,3.744-1.675,9.258,1.136,14.093-2.46-5.164-.725-9.665-1.366-13.245-1.58-12.6-9.142-12.95,5.672-12.756-2.9,1.05-4.7,9.947.439,20.851-4.611-12.693-1.658-19.814,2.78-22.016.5-.082-.142-.131-.244-.2-.367-.293.109-.58.214-.853.3-3.5.868-4.781,2.883-5.817-2.535.914,3.085,7.478-1.694,20.72-4a57.318,57.318,0,0,0-6.359-1.864c-.487.045-.943.086-1.408.127-5.043,3.032-9.08,5.782-13.188,2.822a29.34,29.34,0,0,1,7.149-2.324c-1.781.133-3.367.242-4.742.334.284-.115.579-.23.883-.344-2.664-1.046-4.341-.424-5.268.652a10.91,10.91,0,0,0-2.672.4c-.191-.133-.377-.264-.558-.4,2.45-.777,6.569-2.276,12.5-4.469-8.21-4.236-12.438,1.377-16.475.261a5.242,5.242,0,0,1-2.04,1.474c1.4-1.622,3.153-3.748,5.287-5.97a43.3,43.3,0,0,1-6.258.467,11.825,11.825,0,0,1,6.083-1.31c1.463,3.876,2.88,1.378,4.173-.182-1.242-.543-2.51-1.9-1.447-1.013-6.167-6.2,6.022,4.1,10.8-.717-.971-.528-2.328-4.689-3.75-5.768-1.018,2.887-5.109-2-12.972-4.343-5.333,1.459-7.617,2.8-4.433-1.207a19.107,19.107,0,0,1-6.145-.233,32.355,32.355,0,0,0,7.048-1.366,42.454,42.454,0,0,0-6.359-.615,40,40,0,0,1,6.58.561,52.8,52.8,0,0,0-13.281-1.168A3.935,3.935,0,0,1,2130.852,92a5.972,5.972,0,0,1,.451-1.608c.284.331,1.326-1.226,3.717-2.554,3.137-.469,13.858,2.769,13.858,2.769s-9.217-3.052-12.242-3.527a15.226,15.226,0,0,1,6.386-.916c-9.706-2.928-11.372.839-10.081-1.749,1.575-1.241,7.8-.812,15.39-3.285-8.38-2.372-13.9-.627-16.306-.459a4.266,4.266,0,0,1-1.077-1.147c-3.856,1.047-5.5.932-5.336.253-.175-1.909.815-3.108,2.639-3.968-1.176-.461-.859-.829,1.244-.5.058-.019.129-.036.189-.056a5.139,5.139,0,0,1-1.491-.97c-1.3.112-2.453.257-3.432.411a3.672,3.672,0,0,1,3.044-.92c-.875-1.675,2.4-2.9,7.573.212l-1.184.434a13.014,13.014,0,0,1,4.868.909l.3-.03a6.451,6.451,0,0,1,.4-.929,8.929,8.929,0,0,1,2.428-3.967,13.662,13.662,0,0,0-6.7,1.774c-.594.686-.156-2.5,4.266-2.142a41.6,41.6,0,0,0-8.566-2.987,4.1,4.1,0,0,0,1.264-.32c-.747,0-1.592.034-2.481.1-2.62-.405-4.767-.223-6.145.7-3.506.5-6.5,1.055-6.771,1.05a14.312,14.312,0,0,0-3.643-2.1c3.544-.208,8.2-.428,8.139-.694-.733,2.2,2.656.86.361-.4a15.263,15.263,0,0,1,1.119-1.225c-1.064-.779-1.7-1.215-1.529,1.038a15.894,15.894,0,0,0-4.469-.94c2.806-2.488,9.211-2.655,15.625-3.2a1.933,1.933,0,0,0,2.565-.248c.875-.1,1.742-.2,2.587-.334a2.454,2.454,0,0,0-2.374-3.2c-.924-.916-2.842-1.564-6.392-1.333,4.053,2.316-5.562.7,1.349,2.343-3.367.434-11.457-.7-14.071-1.176-3.566,1.519-9.706-.2-8.153,2.434-1.2-.713-2.2-1.295-2.951-1.764l-.563.433a10.731,10.731,0,0,1,2.248,1.046l.027-.021-.025.023c.055.033.115.073.17.105.016,0,.027,0,.044,0l-.019.015c.18.112.364.223.558.352-.337-.04-.635-.048-.93-.055-.175.134-.342.256-.509.367-.066.012-.126.022-.191.036-.126.105-.252.214-.38.311-.1.052-.2.105-.29.151l.069,0a9.8,9.8,0,0,1-1.553.9c.054.031.109.062.167.1-.082.03-.151.052-.23.081.26.093.511.177.782.278l-.076.022c-.15-.027-.279-.049-.424-.077l-.361-.194-.243.086-.088-.016c.071-.045.139-.088.211-.136l-.019-.01c-.1.044-.205.085-.306.125l-.271-.049a.717.717,0,0,0,.068.123c-.117.044-.238.092-.356.13l.266.01c-.077.025-.167.062-.241.085l.191.015c.05-.029.1-.066.151-.1l.079,0a.822.822,0,0,0,.205.129c.186.015.369.029.561.045l-.035.011-.476-.026a1.165,1.165,0,0,0,.325.071l-.462.137c.443-.031.872-.062,1.346-.1l.049-.019-.027-.014c.06.007.107.007.167.014l-.005.005.076-.005-.087.014a8.215,8.215,0,0,1-3.6,2.013c-.618-.153-.613-.1-.074.015a7.437,7.437,0,0,1-3.477-.075,27.671,27.671,0,0,0,6.887-1.911c-.779.134-1.537.259-2.234.357-.191.053-.386.105-.572.152.055-.029.12-.07.175-.1-.853.118-1.633.208-2.357.279a1.444,1.444,0,0,0-.148.312,12.3,12.3,0,0,1-4.083.1c-.255-.1-.487-.2-.695-.27-.156-.018-.292-.037-.413-.059-.074-.033-.153-.062-.222-.1a.812.812,0,0,0-.175.007c-.158-.06-.194-.133-.172-.207a3.991,3.991,0,0,1-.9-1.381,2.123,2.123,0,0,0,1.233.788c.017.019.03.041.047.059-.312.082-.251.17.131.242.049-.014.085-.029.139-.044a1.03,1.03,0,0,0,.875-.177c.271-.042.588-.081.927-.116.257-.018.558-.036.845-.053l-.041-.015c.388-.03.788-.057,1.245-.078-.509,0-.958.007-1.378.016a1.55,1.55,0,0,1-.588-.412,9.97,9.97,0,0,1,1.193-.693c-.3-.033-.572-.06-.837-.085a7.515,7.515,0,0,1,2.7-.49l.049.012c.148-.016.3-.026.457-.03h.06a5.858,5.858,0,0,1,.979.068l.041-.018-.15-.06.284,0c.276-.1.588-.189.911-.278a1.4,1.4,0,0,1-.088-.2c-7.135-1.805-8.645-2.1-3.128-2.23.615.411,2.7.753,5.9-.175-.074-.049-.128-.092-.191-.137a16.083,16.083,0,0,1-2.7.116,9.1,9.1,0,0,0-2.453-.346c-3.662-.958-3.432-3.3,3.246-1.018-4.154.954-3.109.589,1.25.482,0-.007.013-.012.019-.019l.044.018c.952-.022,2.054-.029,3.3-.01.038-.016.076-.036.115-.053l.684.066c-2.478,3.393,4.345-.772,11.251-4.114a23.022,23.022,0,0,1,10.718-5.816c-1.072-.457-2.043-1.647-1.775-4.056-8.825-3.975-13.929,1.8-16.784-3.657-1.794-.348.342-3.921,10.084-6.966-9.7-1.062-17.033.14-23.05-.936-5.891-.461-9.985-.913-12.274-.884-2.888.088-3.4-1.623-1.469-3.854-3.219.509-6.183-.94-5.653-3.258,1.778-.416,3.963-.988,6.649-1.766-2.338.4-4.417.713-6.351.977a6.286,6.286,0,0,1,1.548-1.807,46.418,46.418,0,0,0-6.3,2.371c-9.892.942-12.827-.413-12.709-2.664.719-.382,1.513-.81,2.426-1.314-.881.375-1.666.7-2.407,1.014a3.482,3.482,0,0,1,.145-.557c-.864.382-1.605.708-2.251.988-.591.4-1.064.74-1.414,1.01-3.7,1.47,1.384-1,1.384-1s-3.78,1.556-1.775.508c.6-.189,1.313-.441,2.179-.776-.134.089-.251.171-.372.253.664-.3,1.417-.631,2.251-1l.005-.019c.413-.174.829-.346,1.288-.546-.44.178-.851.334-1.275.5.02-.056.03-.111.052-.168.514-.2,1.1-.428,1.759-.693-.544,0-1.02,0-1.447.014.009-.012.011-.025.019-.036l-.077.037-.24.008a5.093,5.093,0,0,0,2.125-1.136c-.44,1.12,9.829,1.1,4.449,1.239-3.334,1.341,2.606.5,4.321-.146,2.935,1.547-11.312,2.61,2.762,1.313-6.8,2.436-6.531,2.375.492.016-4.764,1.881-6.243,2.791-3.618,2.473-.656-.3.96-1.35,4.209-2.457-.728,1.094,2.787-1.332,10.368-1.289-2.095,1.976,5.809-1.132,4.762.858a8.037,8.037,0,0,1-4.349.706c-1.745.509-.208.7,1.523.205,13.316-.494,1.756-1.912,9.052-3.838,8.949-1.116,7.674.61,8.53,1.347,1.54.186,8.18-1.209,8.18-1.209s-10.636-.029-8.538-1.343c4.772,1.515,13.469-1.194,15.611-2.194-13.737-.717-8.978.808-21.989-.155-1.414.772-.427,2.462-7.989,2.476,4.217-1.3-.7-.924-2.1-1.074,1.8.85-4.876.912-6.925,1.541-2.347-.6,3.427-2.713-4.094-2.386-.178.985-.268,1.478-.449,2.462-3.025-.066.539-1.823-5.371-.664,2.822-1.54-1.75-1.785,6.4-2.976a30.726,30.726,0,0,0-12.307,1.1c-3.276.968-9.583,2.935-9.583,2.935a3.6,3.6,0,0,1,1.193-.656c-1.43.78-4.428,1.036-5.965,1-5.973.36,2.924-1.048,1.354-1.559,0,0-8.2.861-8.016.731-.383.068-.438.031-.317-.115-2.18.627-4.162,1.036-4.819.278,1.832-.732,2.5-1.6,3.908-2.367,0,0-8.014,2.454-7.765,2.23.4-.634-7.882-.415-1.955-1.566l-12.556,1.388-1.772-1.307c-2.954.572-2.924.891.82.71-4.512.079-18.362,4.62-17.216,1.116a6.427,6.427,0,0,1-3.432.53c-8.517-1.647-16.01-3.451-19.123-3.251-10.576-4.268-19.355,3.178-31.235,1.664-18,.364-10.743-5.1-20.678-7.776-11.815-1.515,3.766,4.535-.558,5.223-6-1.767-9-2.651-15-4.424,7.493-1.2,2.554-3.27.653-4.713-5.8.188-13.754-1.17-20.378-1.522-6.507.372-12.17-1.228-12.417,4.529-8.322-1.569-12.791-3.533-15.807-3.78-3.009-1.945-4.792-2.193-7.54-1.879a8.2,8.2,0,0,1,3.266,1.266c.8.917,2.458,2.685,3.894,4.44-4.231,1.779-17.662-1.867-29.575-2.547A52.953,52.953,0,0,0,1820.271.99c-4.2.059-6.621,2.547-6.646,3.65.6,4.015-.96-4.97-.465-1.632-1.058-2.733,2.516,16.058,1.732,9.6.7,3.507.55,5.407-2.2,7.636-.221-1.5-5.232-2.617-5.232-2.617s-5.6,4.86-5.814,3.4c-4.923-.98-2.97-1.117-3.58-4.57-2.713-.63-4.906,4.607-8.09,4.4-2.563,4.125-6.821-2.13-10.272-2.159-6.73,1.18-14.159-.089-20.881-.619a5.9,5.9,0,0,0,5.924,5.416c1.483-7.737,5.3,1.459,5.907,5.237a.461.461,0,0,1,.232.361c.027.2.158.88.323,1.66-.684,1.122-1.578-.668-1.92-1.361a.229.229,0,0,1,.016-.068,4.9,4.9,0,0,0-.714,2.469c-.008-.352-.03-.853-.071-1.555-4.972-3.566-5.5-1.705-7.081-.609.172.007.3.048.323.2.67.114.4.582-.366.979.61,11.206-1.627,1.627-2.82-.464a2.621,2.621,0,0,0,.711-.114,5.836,5.836,0,0,1-.856-.107c-.136-.175-.254-.226-.347-.083l.005.005c-.12-.029-.224-.041-.353-.078-7.354,3.5-14.957-3.081-15.236.946-.036-.27-7.168,2.287-8.208-5.6-12.08-1.4-16.108-3.633-17.719-1.048-1.244,5.442-2.122-.323-6.211,4.34.643,5.051-11.131-1.73-12.6-5.368,1.242,2.142,8.571-1.819,10.467-1.538-6.2-5.031-9.638-.84-13.65-3.314-4.31-5.531-7.614-4.947-11.952-4.578.306.381.577,1.152.651,1.155-.03-.255.145,15.517-1.5.27-.022-.2-.036-.382-.05-.535-2.065,4.778-9-3.007-16.27-.768-.112-.938-.216-1.833-.292-2.5-4.8,1.445-10.584-3.236-14.8,2.164-4.343,4.284-9.682-3.772-12.4,1.574a9.843,9.843,0,0,1-.427,1.919c4.865.168,9.586-1.857,14.6.2,4.683-1.408,9.37-1.222,13.308-3.36.057.515.471,4.043.471,4.043s13.953,1.673,15.687-1.656a9.373,9.373,0,0,1-3.591,5.91c-1.772,5.984-5.008,7.115-9.859-.589-5.689-.512-11.137-5.662-16.046,1.859-3.3-3.557-6.452-3.939-9.961-3.54-3.287,2.353-7.761-1.955-12.063,1.118-.06-.545-2.913,7.117-2.913,7.117s-14.12-2.81-14.161-3.193a36.609,36.609,0,0,0-1.162-5.434c3.58,2.829,7.157-.939,11.369-2.565,2.921.441,5.773-1.325,8.891-1.508l-.115-.141c-1.972-.646-3.482-3.358-2.844-8.943-.043-.391-3.656,5.969-3.823,4.444-7.71,5.13-13.934,5.194-19.136,5.475a79.831,79.831,0,0,1-14.123-3.457c-4.559-2.544-8.845-1.773-14.552-3.961-5.451-.3-11.933.162-20.52.734a23.442,23.442,0,0,1,3.216,2.583c-6.813-3.44-12.7,2.6-15.485-.1,0-.083-.005-.275-.005-.275a8.777,8.777,0,0,1-.746-1.14c.093.454.186.854.265,1.1a89.377,89.377,0,0,0-15.624-1.434c-5.218-.23-10.5-2.09-15.25-.214-5.215-3.5-10.1-5.836-14.271-3.7-4.6-3.051-8.344.014-12.089-2.814-.112-1.384-1.362,12.393-1.838,6.574-4.359.676-12.476-8.336-13.2-.386-.011-.142-8.584,6.911-8.864,3.263-2.8,2.852-5.03,4.462-7.507,4.584s-5.336-2.962-9-4.347l0,0c.085,1.347-.038-.014-.038-.014s-1.182-4.737-1.362-1.467c.033.346.071.769.118,1.3l-.178-.141c.008-.1.016-.219.019-.39-.266-2.206-.279-2.758-.545-1.293.1.32.23,1.074.336,1.533-6.93-5.48-6.6-1.374-6.6-1.374s.517,13.815-8.065,4.407c-3.142-6.653-4.184-4.26-5.333.959-.966,7.831-3.058,3.612-6.731,6.309-.561-8.282-9.066-11.033-8.924-8.887-4-7.117-6.783-7.865-9.022-4.647-2.183,4.124-4.518,1.146-6.586,5.309-2.163,2.657-5.065-3.731-8,.148-3.2-.6-7.422-7.353-11.689,4.684-4.958-1.057-9.274-11.293-10.833-7.279a18.82,18.82,0,0,1-1.212-3.459c-.684,1.4-1.258,1.673-1.666,3.056-.744,2.542-1.31,2.1-2.259-3.434-1.165,2.067-3.235-5.294-8.369,3.488-1.4-.642-1.537-5.136-.717-7.078-7.7,1.615-4.885,3.128-10.937,3.106a18.065,18.065,0,0,0,.063-3.493c-.118,1.376-.232,2.737-.383,3.49-.183,0-.344,0-.544,0-.659-7.846-.5-2.3-.645.051a3.06,3.06,0,0,0,.591.834c-.5,7.034-1.583.673-2.2,10.234a18.132,18.132,0,0,1-.968,5.645,6.462,6.462,0,0,1,1.19,2.829c-4.083-2.023-7.975,4.391-12.433,3.889-4.565-2.87-9.271-4.279-14-1.192-.036-.969-.088-2.308-.14-3.7-1.069-1.867-9.837,2.4-9.837,2.4s-1.567-15.449-1.083-4.2c.26,6.01-3.594-.027-6.99,4.93a10.958,10.958,0,0,0-5.259-2.624c.008.166.019.333.024.523-.364.014-.834.016-1.367.036.077-.229.153-.486.23-.75a2.352,2.352,0,0,1-.96-.361s.046.862.082,1.151a13.113,13.113,0,0,0-7.182,2.636c-3.927,1.536-8.21,4.2-11.694-2.183-.016-1.084-.044-2.513-.044-2.44-4.562,1.117-8.872,2.257-13.245-1.248-4.2,1.651-8.407.608-12.665.486-2.038,2.866-4.056,7.287-6.271,6.467-1.009,2.887-2.04,5.576-3.186,4.646-1.1.739-2.292-3.734-3.6-7.007-2.278-5.688-4.794-5.092-7.16-2.243-2.117,4.495-4.362,7.076-6.826,4.3.741-.278,1.8-2.239,1.709-5.742-7.417-.023-1.411,7.425-10.155,5.2.038,1.653-.938-9.351-.856-5.869-3.38,8.347-5.82,9.7-8.215,1.879-2.262-1.529-4.217.409-7.01-6.143.049,2.331,2.021,5.5,2.7,6.968-1.458-1.822-9.569,2.9-9.641-.749-5.5-3.078-7.3-5.323-7.537-6.189-.3-5.1.758-3.848,1.425-6.439-1.124,3.293-6.651,9.2-6.717,5.167-.071-4.394-1.783-3.446-1.838-6.77-4.931,3.474-5.415-2.8-14.506,3.237-.908-2.286,1.307-8.875-1.865-5.114.049,3.841-2.724,3.169-5.872,4.234-.008-.041-.017-.037-.025.008a9.136,9.136,0,0,0-1.556.687c-2.773,1.844-5.522,6.469-6.772,6.632,1.876,1.818,7.023.27,8.156-4.21-.164,3.975-.35,10.062-.372,8.051-7.141-.887-11.057-2.054-15.485-.46a2.316,2.316,0,0,0,.1-.543c-.334.323-.656.617-.974.891a20.159,20.159,0,0,0-3.673,2.139c0,.077,0,.141.006.212-2.809,1.106-4.729.115-6.364-.393-2.426-3.113-4.25-6.718-7.483-6.571,2.059,3,5.2,4.546.667,5.884-3.345.256-1.988-9.22-5.188-4.513-.241,6.355-2.382,3.486-5.38,7.245-2.975,2.228-6.818-2.015-10.532-.066a12.24,12.24,0,0,1,.355-2.688c-1.717-2.289-2.691,3.347-5.9,1.511A45.726,45.726,0,0,1,1083.72,23c-1.584,1.58-5.39,1.716-5.4,5.437-4.264-.423-10.248,3.5-9.829-1.566-.011,2.844,1.581-2.973,2.147-2.707-1.28-2.842-8.533,3.98-15.726.442-7.939-4.208-15.922-.784-15.922-.784s-.558-4.128-.542-5.884c-1.529,6.69-5.91,9.236-9.651,2.818-3.821.557-7.105.082-6.515,4.306-3-4.956-8.924-1.815-13.636-1.478-4.718.616-8.27,1.908-6.5-5.936-5.218.255-9.854,1.92-14.211,1.172-4.4,1.418-8.607,4.569-12.857,2.948a113.153,113.153,0,0,0-13.746,3.3c-5,2.072-10.423-.246-16.718-2.839-2.278-.509-5.555-.126-9.307-3.564-3.87.441-8.1-6.339-12.865-3.586-4.616-1.756-9.545-.719-14.3-.531-4.9,4.177-9.26-1.907-13.4-.189-5.1-4.86-10.379,2.557-15.072.49-4.923,3.457-9.539,4.216-13.972,3.186-4.267-4.8-9.086,4.647-13.39,2.654-4.534,2.9-9.023,4.327-13.368.684-4.581,1.01-9.23,1.024-14.167,2.2-4.633-4.6-10.081,1.815-15.45.6-3.063-3.319-6.876,1.67-10.365-2.169a45.842,45.842,0,0,1-11.437-3.312c-3.793-3.6-8.033-1.5-12.313.709-4.007-2.1-8.4,1.478-12.537,2.075-4.247,2.25-8.254,1.767-12.094,1.066-3.681-3.013-7.36-3.771-10.937-2.7-.052.739-6.17,4.288-6.238,5.24-3.039-6.064-7.321-1.5-11.44-3.687-3.968-4.22-8.971,1-13.669-.177-5.163,4.9-9.7-.665-14.722-.244-5.057.865-9.928-.877-14.555-3.76-4.381,3.806-6.711,2.4-8.084,2.638.752.3,1.386,2.7,1.444,5.138-5.24-3.882-16.716-3.6-15.455-6.693.525-5.992,1.395.593,1.5-.653.908-4.609-3.339-4.934-8.774-1.979-5.161.65-11.26,2.123-14.027-1.341.454,1.058,2.125,6.971,2.393,7.278-.238.479-5.328-.469-8.314-1.1a3.157,3.157,0,0,0,.9-1.8c-11.979,3.123-21.825,1.072-31.38,4.94-8.875-3.014-17.41-1.437-25.4-2.484-7.956-1.042-15.849-4.091-24.789-2.848-8.856.485-18.543,1.986-29.816,3.9,7-7.439-8.949,1.423-8.369-4.907-4.537-5.82-9.892-3.618-14.881-3.241-4.775-1.381-10.953,9.992-15.19,7.165.692-5.738.183-2.365-.454.119a6.277,6.277,0,0,1-3.044.053q-.259-.074-.533-.144a13.52,13.52,0,0,1-.875-3.041c.12-.5.123-.619.049-.505.156-1.6.1-1.716-.044-1.38.011.386.008.879,0,1.451-.208.387-.739,1.686-1.28,2.657a15.817,15.817,0,0,0,1.813.728c-.618-.151-1.3-.289-2-.417.06-.1.12-.2.183-.311-.5-.234-1-.48-1.493-.721.008.322.025.587.049.817-.134-.021-.263-.041-.4-.06.109-.192.347-.757.347-.757s.525-7.995-.49.1c-.027.226-.057.431-.088.626-.1-.015-.208-.031-.315-.045a8.644,8.644,0,0,1-.115-1.555c-.074.593-.123,1.094-.156,1.523A28.215,28.215,0,0,0,466.7,20.1c1.707-1.239-.457-2.535-3.208.131-3.58,4.056-7,5.957-1.72.419-4.917-1.224-9.361-7.639-15.359-3.462-5.825,2.862-11.4,2.393-16.6-1.763-5.489-1.971-11.03-4.416-17.657.286C406.41,14.03,400.27,14.535,394.3,13.47c-6.058-.448-11.941-2.46-18.469-.1a50.777,50.777,0,0,1-18.389-1.185c-5.883-1.636-12.343.123-18.132-1.777-5.451-.821-11.333,1.5-16.42-.725a8.342,8.342,0,0,1,.055,2.239c-5.484-3.345-12.058-4.8-19.147-.6-5.669-4.68-12.572.838-16.273-3.434-4.2-1.169-9.11-2.554-14.2.994-5.407,5.491-9.6,7.5-10.975,4.962-9.531.735-16.325-4.5-14.528-5.24-4.647-3.645-10.9,1.731-17.167,4.543-7.165,7.932-12.222,1.2-19.062-.119-.982-6.414-11.662-4.7-21.964-1.907-8.506.728-16.388.521-17.982-1.447.544-1.659,1.253-4.216,1.288-4.416-.678,1.655-1.223,3.318-1.5,4.036a1.227,1.227,0,0,1-.046-.772c.522-2.794-1.006,4.071-.407.864C162.918,3.336,152.036,11.1,143.4,6.105c-9.195-1.636-19.686,2.384-28.522-2.747a6.435,6.435,0,0,0,1.25-1.511c-.183.916-15.57,8.442-15.6,8.577-5.3-1.029-10.461-1.972-15.934-.556-6.126,4.607-10.425,1.117-14.9-.505-5.593,3.77-9.187-1.1-13.71-.438C51.337,10.189,47.94,6.6,43.5,9.085c-8,.89-14.892,1.252-20.364.675C21.031,8.4,18.778,8.773,16.4,9.606a30.612,30.612,0,0,1,2.959.946c-2.631.857-5.254,2.063-4.521,1.842-5.68,2.049-6.381-4.756-8.306-1.322,7.595-1.088-3.711,4.724,3.446,4.547-.276,1.25-4.753.166-4.688-.125-1.657,3.082,5.418-.218,5.147.657.662-1.248,2.6-5.3,1.789-1.61,3.153-1.33,4.71.018,5.741,1.126a5.713,5.713,0,0,0-.8.855c.345.026,1.5,3.786,2.221.487.011-.055.014-.1.022-.149,2.76,1.24,5.71-.426,12.173-1.243,1.824,2.272,2.9,2.635,3.55,2.335-.011-.029-.025-.057-.038-.085.03.021.06.042.093.062,1.121-.6.889-3.211,1.19-.509a4.56,4.56,0,0,1-.208.725c1.668.107,4.318-.393,4.1.623-.377.007-.779-.005-1.19-.027a1.874,1.874,0,0,1-.613,1.629c-.2.924,2.3-.3,4.343-.819a4.564,4.564,0,0,0,.421,2.079,2.458,2.458,0,0,1,2-1.675c-.016-.067-.03-.136-.049-.2a.933.933,0,0,1,.077.192c2.7-.721,7.053.276,6.706,1.358,1.756-2.1,8.831-4.769,8.746-.879,1.127-1.176,3.26,1.518-3.454,3.275a13.711,13.711,0,0,1,5.174-.684c5.834-3.2,5.924,1.139,3.049,4.116-1.1-.168-3.419,1.56-6.282,2.553.131.162.178.261.12.244-1.217,4.056-15.25.979-15.25.979s10.45,6.177,9.356,4.748c-1.154-1.154-7.155-1.094-17.889,2.93,10.048,2.139,14.84,10.95,18.373,5.361,2.2-2.347.438,3.56-2.828,5.274,2.6.505,4.089,1.143,4.671,1.745A3.917,3.917,0,0,1,54.5,52.49c.041.041.079.079.115.118a6.139,6.139,0,0,1-.626.137,3.8,3.8,0,0,1-1.994.109,21.3,21.3,0,0,1-5.218-.816c.345-.2.67-.361.99-.509a44.5,44.5,0,0,0-4.42-1.4,9.694,9.694,0,0,1-5.65-1.214c-10.324,3.008-7.33-3.534-15.646-5.476-7.2-1.273-10.97-1.064-11.883,1.151-.32,1.466,3.728-.771,3.462.446,1.616,9.588-7.567-1.961-13.625.921.913,4,2.724-3.14,2.587,4.874.366,5.725,2.883,8.009,10.729,5.63,6.014-2.022,7.972.7,10.281,2.6,2.6.572,5.1,2.41,11.23,3,4.575-3.738,8.207-.24,12.917.7,5.33-2.669,9.206,4.019,15.439,1.437.648,1.181,1.865,2.524,3.342,1.916-.911,4.425,1.9-.9,1.408,1.56.366.064.717.359.993,1.14.1-.474.416.285.725,1.032-1.181-1.014-2.667-.389-4.294,1.778,1.006,3.074,3.268-1.083,4.4-1.522.3.706.558,1.266.569.531a3.476,3.476,0,0,0-.438-.571c.265-.033.454.2.52.894.667-.464,3.788,4.4-2.057,2.624.265.215.49.4.708.584a4.966,4.966,0,0,0-1.827.079,24.206,24.206,0,0,0,3.4,1.362,1.84,1.84,0,0,1,.167.229c-.976-.044-2.223-.062-3.777-.031-1.285-.179-2.839-.364-4.627-.45a16.818,16.818,0,0,0,4.25,4.035c-.063.031-.139.059-.208.088.2.045.394.1.591.131,1.964,1.038,3.35.615,4.086-.354a7.525,7.525,0,0,0,1.553-.8c2.415,2.579,4.3,1.794,3.687,5.687a1.027,1.027,0,0,1-.325.6c-.139-2.826-2.308-1.321-5.653.264-.082-.018-.172-.034-.257-.052.046.041.09.07.137.108-.1.048-.194.094-.3.141a5.512,5.512,0,0,0-1.25-.5c.514.078.982.16,1.411.246a5.547,5.547,0,0,1-.64-.673,4.887,4.887,0,0,0-.309-.446,4.819,4.819,0,0,0,2.593-2.9c.878-.725-1.778,1.032-6.457-1.136A36.978,36.978,0,0,1,54.7,79.5a51.363,51.363,0,0,0,7.133,3.567c-1.042.274-2.133.565-3.271.787,1.258.062,2.434.13,3.536.205a19.084,19.084,0,0,0-3.241.569c-.219-.189-.5-.409-.864-.68.189-.033.383-.059.569-.094l-.744-.037c-1.132-.827-2.847-2.028-5.027-3.752-1.917.386-5.727,1.132-11.64,2.245-3.331-2.821,5.388-3.761,3.963-5.294-5.957,1.083-12.939.791-11.454,2.139a30.736,30.736,0,0,0-5.631-1.586,6.034,6.034,0,0,1,.112.68,4.111,4.111,0,0,0-1.3-.861c-1.841-.226-3.471-.142-4.275.535a9.658,9.658,0,0,1,1.05-.985c-3.129.233-6.815,1.792-9.534,2.606.372.575.755,1.047,1.187,1.068a13.944,13.944,0,0,1-8.634,2.761c1.83,1.222,3.265,2.714,5.935,1.934A3.391,3.391,0,0,1,11,84.093a11.793,11.793,0,0,0,2.9.68,15.391,15.391,0,0,0,2.306-1.462A8.187,8.187,0,0,1,14.7,84.854a22.526,22.526,0,0,0,2.431.01c-.1.24-.342,1.148-.82,3.207-.312,1.849-.484,3.29.451.029.093-.777.44-2.855.427-3.238,1.367-.062,2.688-.2,3.914-.271-1.98.756-3.564,2.672-4.34,3.509a6.67,6.67,0,0,0,5.3,2.6c1.2.819,4.474,1.894,5-.509h.005v-.015l0,.014a44.322,44.322,0,0,0,7.7-2.688c1.324,3.405,19.957-4.729,6.93,2.086a61.618,61.618,0,0,1,8.96-1.252c.309.115.618.207.924.3-1.017.177-3.069.4-6.515.6,3.93,3.189,5.943,5.23,6.687,6.452-.279-.037-.511-.057-.8-.1.4.209.7.389,1.056.583.131.339.12.584-.016.745.366-.041.73-.089,1.086-.155l.03.018c.019-.014.038-.023.057-.037A21.214,21.214,0,0,0,55.65,96.1c-.4-.029-.8-.057-1.244-.1,2.653-1.5,3.285-1.148,2.656-.376,2.817-1,4.7-1.768,4.857.6-.621-.022-2.39.126-5.426-.052a7.706,7.706,0,0,1-2.418,1.213c3.408,2.183,3.142,3.186.886,3.493-3.246,2.525-9.11,2.31-15.108,5.25-11.9,5.433-20.143,3.57-20.556,5.493,1.753,2.4,7.822,3.166,12.146,5.91a17.318,17.318,0,0,1,8.872,1.634,24.357,24.357,0,0,0-5.166.539c.186.093.364.157.544.244.052-.018.1-.027.148-.044.514.152,1.023.3,1.463.415-.156.038-.317.088-.479.134-.372-.151-.752-.327-1.132-.505a22.825,22.825,0,0,0-5.421,2.811c1.387-.144,2.675-.252,3.916-.348.109.014.222.033.331.047.161-.04.3-.07.462-.107a78.012,78.012,0,0,1,9.277-.19c-.033-.057-.077-.115-.109-.172a21.019,21.019,0,0,1-4.606-.65c.547-.112,1.108-.231,1.625-.328.952.208,1.876.4,2.708.56-.077-.1-.17-.2-.254-.305.306.04.618.082.908.115.2.108.394.22.585.335a.7.7,0,0,1,.014.07l.145.026c.1.057.186.116.279.175-.137.005-.263.015-.4.018,0,.07,0,.145-.005.218.317.023.6.055.886.085.3.208.6.422.892.639q-.894-.064-1.857-.088a3.318,3.318,0,0,0,.079-.636c-.287-.022-.574-.044-.889-.06a4.7,4.7,0,0,1,.312.686c-.924-.018-1.887-.021-2.891-.027a13.411,13.411,0,0,0-5.762-.222c-.462-.04-.927-.085-1.4-.14-1.351.328-2.76.686-4.264,1.09.856-.022,1.682-.029,2.5-.031a21.98,21.98,0,0,0-3.369,1.711c.2.09.4.182.593.274A17.291,17.291,0,0,1,40.7,126.564c4.972-.331,8.85-.511,11.353,1.137a4.6,4.6,0,0,1,1.482-.1c.273.2.539.371.8.523a4.738,4.738,0,0,1-.714-.172,7.037,7.037,0,0,0-1.255-.019c.1.078.216.146.315.233.325.5.637.918.938,1.3l-.03-.005.057.042c.036.045.074.1.109.14-.107.044-.205.068-.317.122-.252.094-.511.188-.777.281.5.008.979.005,1.428-.011l.049.057a8.669,8.669,0,0,0-4.146,1.744,5.845,5.845,0,0,1-3.23.467,12.192,12.192,0,0,0,5.442-2.1,29.321,29.321,0,0,1-8.839,1.488,22.683,22.683,0,0,0-6.479-.606c-1.562-.311-4.887-1.351-4.887-1.351s3.014.987,4.422,1.38a18.747,18.747,0,0,0-4.849,1.148c.944.32,1.838.579,2.7.806-2.757-.016-5.935.368-9.061-.8,7.97,3.191,12.816,4.554,14.574,2.777,1.037.459-.443.842-4.562,1.585,3.815-.435-1.343,1.805-8.965,2.4,7.836.053,11.339,5.621,9.709,2.371.706,1.083,1.2,1.834,1.482,2.353A36.142,36.142,0,0,1,47.617,146.7c5.122-.022,8.935-1.157,10.043,2.951,3.575,2.6,4.018,5.439,2.076,6.877,5.7-.8,10.086.691,14.03.742,4.182,3.321,8.96-1.855,10.841,3.037a14.687,14.687,0,0,1,6.46,5.662c-.172.07-.339.145-.52.2-2.568-.405-3.851,2.143-4.83-.318.881,2.852.066.112-3.312-.2,5.3,2.085-1.135,3.189-2.9,1.445-.539,1.463-10.735-.478-2.587-1.885.733-.257-.252-.86-1.575-1.144a7.47,7.47,0,0,1-1.047-.142c-1.162-.064-2.325.2-2.71,1.18-.706-1.142-.528-1.7.016-1.934-1.813-5.664-7.647,2.814-15.707.723a7.366,7.366,0,0,0,.665-1.366,2.343,2.343,0,0,0,.684-.356c.364,1.481.191-4.409-1.28-.883a4.575,4.575,0,0,0-1.269.293c-12.567-2.944-3.022,2.623-10.855,3.223a45.916,45.916,0,0,1-4.9,2.665c.514.188,1.031.376,1.608.626,1.8-.862,2.054-5.3,9.094-1.595-4.767.708.249,1.365,1.682,1.269-2.516,4.075,5.1.6,7.625-.8,2.073,1.095-4.513,2.015,3.167,2.755,1.053-5.2,1.75-3.827,1.455-2.367,3.017-1.529-.057.235,3.249.959-.711.524-5.765,2.5-5.765,2.5s9.517-.819,12.9.168c3.367.6,6.233,2.027,10.8-1.718-.134-.031-.191-.312-.23-.639,1.772-1.083,3.856-.587,5.576.07a8.733,8.733,0,0,1,3.2-.123c-.254.6-.547,1.4-.889,2.456.323-.389.219,7.509,2.855-.085-.088-.647-.167-1.328-.26-1.935a2.265,2.265,0,0,1,1.4,1.1,5.764,5.764,0,0,1-1.138.832c.025,2,.227,3.107,1.121.619a1.629,1.629,0,0,0,.066-.182c.063-.193.137-.405.213-.641a4.37,4.37,0,0,1,1.808,0,11.957,11.957,0,0,0-1.89,2.226c-.238,1.218,1.573-.253,3.651-1.8a1.6,1.6,0,0,0,1.66-.349c-.243-.145-.468-.261-.684-.364,2.636-1.882,4.452.9,4.452.9s-.339,2.7.5.5c.913-2.39,1.239-2.457,1.389-1.237.345-.245.476,1.068.172,2.64.492.871.736,3.284,1.835,1.842.038-.412.235-1.887.235-1.887s10.576-1.53,10.327-.229c-.178.933,1.168-1.043,1.269.246-.213.178-.435.36-.676.563a.61.61,0,0,0,.6.45c-.019.112-.033.216-.057.346.153-.153.287-.292.427-.435,1.078-.408,2.645-2.109,3.709-.549-1.083,5.7-.692,5.081-.008,1.485,2.111-2.341,6.5.909,13.272-.959,0,.018-.008.037-.008.047l.014-.048h.008l.008-.033c.068-.1-.265,1.934.137.062,3.178,3.119,7.587,2.26,11.4,5.175,4.964-3.295,8.689.69,12.592,2.284,7.089,7.138,14.6,6.118,17.987,5.29,4.4,3.722,9.917,1.73,15.335,1.567,4.939,2.588,11.169-.875,17.1-.4,8.279,6.217,11.076,4.823,12.676,3.878,1.045,2.339,1.463,1.807,5.749,5.586,11.615,2.272-2.885-1.24,2.366-5.1-.211,1.25,14.386,2.313,13.836,5.641-7.89-.631-3.32.546-2.267,4.591a74.265,74.265,0,0,1,20.422,3.211c7.294-2.825,11.678,5,14.246-3.449,7.5,5.6,12.447,1.66,15.028,5.008,1.176,12.408,4.794,1.209,8.109,2.419-.845-7.528-4.324-7-6.036-5.621-.156-.174-.312-.355-.459-.545,2.79-2.852,7.68-5.353,12.293.231,5.546-.541,10.6,8.568,17.337,4.6,6.375-1.517,10.352,11.47,15.638,5.37,4.414-.14,7.537-1.621,8.158-4.569.648-4.487.566-2.323-.006,1.648,1.329-4.5,1.553-11.678,1.075-9.624,1.045-8.494-.118,2.7,4.524-7.391.528-3.66,3.657,9.531,4.595,2.976,1.067-7.473,6.75-1.5,6.952-2.941a19.653,19.653,0,0,1,2.344,4.795v-.012c5.533-.678,12.233-.073,19.494-.906,3.878-2.237,6.867,2.717,10.428,3.269,3.572-.389,6.621,2.943,10.472-.838-.922-1.053-3.309-9.644-6.865-9.47-1.214-.133-2.188-2.03-3-4.35,1.562,1.636,3.326,2.546,5.522.475a26.443,26.443,0,0,0,11.044,1.845c4.294-5.341,6.668,1.385,8.954,2.706,2.245,1.636,3.714,4.621,4.915-3.184.837-5.457,1.931-.038,4.165-2.427,1.882.326,2.91,7.357,2.762,8.52,5.973,1.373,9.638,4.406,12.318,5.056,2.527,1.848,4.441-1.679,5.593-2.865.82,9.591,3.64-12.054,7.477-3.912-.479,3.89,11.924,4.172,11.629,6.638-.183,1.529-11.6.266-11.566-.041,4.772,9.918,9.818,3.2,13.6,4.533,4.029-3.384,6.214,6.731,10.639,5.775.049-.5.1-1.051.172-1.682,1.419-12.709,2.319-6.152,1.616-.175a2.184,2.184,0,0,0,.175.438.586.586,0,0,0-.055.044,6,6,0,0,0,7.98,2.171,7.267,7.267,0,0,0,4.2-.679,37.332,37.332,0,0,1-4.759-1.259,30.333,30.333,0,0,0,8.03-6.261c6.044-1.857,11.44-5.153,16.951-.91,3.873-7.922,5.989,2.141,10.116-1.927,3.78-.9,7.562,2.353,12.034,5.576-.293,2.751,5.016-11.183,4.564-6.915-.386,3.637,13.888,3.942,13.888,3.942s-.153,5-.044,5.508c-3.613,2.174-7.658,1.586-12.107.868-4.578.185-9.786,2.257-14.662.16-4.671-4.009-10-2.94-15.3-.583-5.254,1.964-9.693-1.641-14.473,2.1.208-1.835.481-4.114.481-4.114a15.008,15.008,0,0,1-4.723,3.817,18.452,18.452,0,0,0,4.236.3c-.082.7-.222,1.905-.293,2.5,5.995-7.19,10.136,4.535,15.811-1.285,4.876,1.369,10.138-4.708,13.171-.86,2.995,1.042,10.488,2.7,7.165,9.2-.063.6,5.1-5.688,4.947-4.206,17.017,2.039,26.512-6.125,34.878-.234,8.774-3.305,17.181-.527,33.122,4.1a6,6,0,0,1-.232-1.872c6.542,2.123,13.54-.987,16.026.913-.008.064-.016.13-.025.192-.167,1.626.145,2.076.429,2.234-.06-.486-.109-1.195-.137-2.212,10.94-.8,22.456-5.714,31.968,3.074,9.832,4.933,19.585.056,26.345,7.606-.137,1.745,3.1-8,2.981-6.477,4.808-2.618,11.511,11,13.669.91-.005.067,9.66-2.031,9.723-2.911,6.115,2.388,10.119-4.691,17.2.381v0c-.191,3.035.35-4.473.041.016.178,3.563.763,1.566,1.247.88,0-.068,0-.257.022-.667.025.007.046.011.071.016-.027.256-.055.508-.074.623a1.246,1.246,0,0,1,.088-.1c.014-.2.025-.367.033-.509.025.007.047.01.068.015-.033.163-.066.327-.1.494.038,1.324-.4,6.755.689.361,0-.27,0-.508-.005-.727,12.813,2.78-.692-6.014,15.244-2.372,5.21,5.485,5.918-13.4,13.5-6.84-.268,4.218,8.049,9.9,8.1,9.164,7.168,2.987,11.375,1.376,16.316-.167,5.06-3.515,10.628-3,21.04-4.235,4.988,1.878,8.363,11.738,10.445,7.575.834,4.235,1.1,6.749.621,8.3,2.4-2.7,3.339-5.613,4.307-4.329,1.51-3.345,3.271-3.633,9.1-3.258,1.986,2.306.741,2.688-1.917,7.382,10.732,4.547,6.421-1.362,14.561-3.085-.046.334-.088.6-.129.834.421-.428.8-.694.807-.869a20.58,20.58,0,0,0-.065-2.228c.883-2.309,1.594-.4,2.842-8.785,1.283-5.067,2.374-4.116,3.771-6.447.011-.231-3.476,4.8-3.162-2.023,4.16-.627,8.954-10.424,13.245-3.585,4.537.7,9.34.583,14.331,1.484-.088,1.3-.194,3.052-.213,3.314.041-.233,10.42-.193,10.48-1.773.123-3.148.914.558.774,4.214-.243,6.272,15-1.463,15-1.463a2.641,2.641,0,0,0-.158-.764c4.723-.116,14.134-4.666,19.8-.412-.036.553-.1,1.82-.142,2.369,4.655,3.7,9.148,4.327,13.6,3.178,4.357,2.185,8.768-.465,13.226-2.012,4.329,3.31,8.861,2.539,13.748-2.546,4.39-4.041,8.8-.01,13.688-1.618a9.589,9.589,0,0,0-1.108,4.083c7.521,8.418,1.7-1.636,10.773-5.085.027-1.366.533,10.8.629,5.877,3.875-8.174,6.389-6.785,8.609-1.793,2.305.276,4.368.688,7.042,6.21.044-2.624-2.147-5.051-2.661-6.927,1.094,3.076,10.144-2.461,10.1.771,5.377,2.691,7.242,4.4,7.576,6.039-.29.819-1.294,5.016-1.893,7.676-.03,2.139,7.431-7.583,7.412-6.152-.014,1.194,1.668,11.1,1.72,6.783,5.284-6.606,5.645-2.142,15.217-3.144.889,2.852-1.548,7.027,1.83,5.123.014-1.322,3.017-4.2,6.38-4.792a.973.973,0,0,1-.183-.624c0-.442.862-14.324.829-9.952,7.6-3.034,11.656-.617,16.4-.865a3.924,3.924,0,0,0-.437,1.93c11.667,1.377,12.463,1.767,19.185,3.761-2.128-3.709-5.377-10.5-.662-5.884,3.473-.238,2.024,4,5.371,4.518.271-.4,2.494-9.372,5.6-7.242s7.059-5.39,10.937-.082c-.055.855-.134,2.547-.268,3.139,1.729,2.866,2.74-1.992,6-1.825.022,4.286-1.731,4.209-1.718,7.378.022,4.557,6.274-6.534,6.271-7.067,4.1-.131,9.657-.426,10.133,1.161,3.041.375,8.642,3.255,14.216,2.6,8.238-3.681,16.563.7,16.563.7s.629.654.7,5.881c1.43-6.781,5.91-8.789,9.974-2.883,4.028,3.642,7.4.461,6.649-4.354,3.276,5.409,9.446,7.584,14.216,1.363,4.849-2.109,8.549-.678,6.982,5.873,5.421-.441,10.19-1.491,14.777-.084,4.523-1.2,8.877.407,13.2-4.342,4.37-3.278,8.935-4.391,14.15-2.1,5.24,3.2,10.841.348,17.5,1.206,2.333-1.56,5.967,5.643,10.053,7.569,3.946-2.109,8.73,1.721,13.505-.8a24.257,24.257,0,0,0,14.919-.118c5.163,5.285,9.731-.116,13.992.293,5.374-3.295,10.658-1.236,15.592-2.247,5.027,1.01,9.589-4.366,14.314-2.082,4.781,2.309,9.113-2.371,13.7-2.139,4.619.84,8.938-4.153,13.77-1.877,4.756.872,9.5-.757,14.591-.32,4.868-3.464,10.174-3.26,15.819-3.315,3.542,2.748,7.422,6.217,11.268,5.917,3.862-.062,8.027,1.473,12.033-1.124,4.105-1.039,8.5.643,12.811.662,4.275-.486,8.478-2.342,12.6-4.272,8.495-.371,16.459-4.184,24.116.806.1,1.387,5.943-1.975,5.678-5.459,3.427-2.375,7.723.17,12.411,3.238,4.291-2,9.321,1.01,14.186-.365,4.876-1.209,9.958-2.109,15.288-.364,5.13-.619,10.945,6.429,15.72,3.123,3.8-1.6,6.129-3.193,7.559-3.482a9.665,9.665,0,0,1-2.046-4.554c6.315,6.106,17.55-1.291,17.186,5.972.091.979-1.685-1.968-1.438.72.061,6.4,3.955.283,9.455,1.567a84.852,84.852,0,0,1,14.938.8c-.071-.742-3.681-3.414-4.045-7.235-.35-3.664,8.361,1.87,10.6,1.656.151-.062.3-.125.443-.188a1.109,1.109,0,0,0,.085-.4s.011.246.014.363c4.75-2.027,9.132-4.833,13.691-3.553,5.2-1.183,10.278-.222,14.867-1.851,4.5-2.447,9.285.021,13.691.053,4.08-3.036,8.675,0,13.043,1.073,4.313.558,8.7,2,13,1.965,4.146-1.462,8.9,1.766,13.209-.512,4.444-1.133,8.979-3.024,14.241-1.2,4.745.557,9.744,1.118,14.479-3.29-2.021,2.624,9.947-3.471,10.915,3.24,5.169-2.1,11.071,2.774,16.15,2.3,5.705,4.515,8.661-11.44,13.847-8.067-.4-3.342-.364-4.106.525-1.607-1.493-11.693,16.152-.914,16.371.753-.733,2.083-1.247,3.447-1.581,4.288a9.448,9.448,0,0,1,2.735-3.574,11.4,11.4,0,0,0,3.219-3.122c-.312.489-.812,1.307-1.559,2.592,5.352.727,10.754.134,16.357-.256,6.747,8.1,11.867,2.762,17.914,3.279,5.2-5.6,12.394,2.152,17.952-2.414,6.788,4.1,12.917,2.839,19.131,1.827,6.266-.617,12.7-.478,19.024-1.166,5.757-4.487,13.27,2.617,19.234-.316,6.162-1.637,12.619-1.151,18.89-1.451,4.833-5.427,10.874-2.727,16.959.657a11.083,11.083,0,0,1-.364-1.652c5.91-2.026,13.817,3.048,19.823-.958,6.443-1.332,12.635-1.632,17.818,2.037,3.894-4.012,10.242,1.92,14.213-2.18,4.649-.123,7.74-5.4,9.531-5.832,8.8-5.512,17.987,1.51,16.672,3.9,4.835-3.633,9.449-8.742,15.931-5.994,5.21-4.347,12.95,2.753,19.481-1.608,4.367,11.833,13.4,2.283,23.085-.159,9.627-2.779,18.849-3.624,19.568.825.506,3.147-.233-2.535.085-.887,10.945,7.4,20.162,4.421,29.359.538,9.725-.49,19.06-3.853,29.989-.2a5,5,0,0,0-.523,1.642c-.2-1,5.722-3.6,11.063-8.945,6.411-.131,11.862-4.892,11.019-8.952,4.332-2.517,9.463-.237,13.4-2.558,4.16-1.262,9.115,2.291,12.594.089a131.232,131.232,0,0,0,19.858-2.818,16.239,16.239,0,0,0,3.265-1.267,12.505,12.505,0,0,0-1.406-.441c2.937-1.306,7.422.077,4.983-1.578a12.159,12.159,0,0,1,6.837-.134,1.512,1.512,0,0,0,.274-1.419c1.069-.01,1.89-.731,1.513-2.616M2062.2,18.477l.172-.086-.186.119.014-.033M33.12,15.45c.189-.018.369-.04.566-.056-.126.576-.325.423-.566.056M55.86,51.974c.022-.218.044-.46.063-.743a.611.611,0,0,1-.063.743M71.392,75.868l-.014-.038.178.048-.164-.01M22.06,78.7c-.06-.021.019-.174.186-.391a1.308,1.308,0,0,0-.186.391M22.4,90.711A16.069,16.069,0,0,0,25.44,90.5a3.133,3.133,0,0,1-3.036.208m2.4-5.862a3.776,3.776,0,0,1,2.543,2.473,8.16,8.16,0,0,0-2.543-2.473m11.478,34.919-.112.033c.583.155,1.086.271,1.635.408l-.1.022q-.849-.175-1.75-.364c.074-.023.145-.042.219-.066l-.161-.04c.1,0,.181.005.273.007a8.359,8.359,0,0,1,4.742-.171,2.348,2.348,0,0,1,.591.554,43.5,43.5,0,0,0-5.333-.383m6.752.909-.005,0,.008,0h0M50,126.343a35.078,35.078,0,0,1-3.76-1.733q-1.042-.107-2.2-.248c.457-.038.9-.082,1.34-.133l.085.01-.033-.015c.946-.111,1.852-.235,2.7-.341.361.286.714.569,1.058.839.667.094,1.294.185,1.868.268q-.771-.041-1.655-.1a15.4,15.4,0,0,0,1.964,1.34c-.44.025-.886.051-1.376.115m2.368-1.929a7.427,7.427,0,0,0-1.488-.727,5.108,5.108,0,0,1,3.126.86c.016.018.033.03.049.048a6.555,6.555,0,0,0-1.687-.181M39.8,134.832a4.962,4.962,0,0,0-1.214-.928,26.693,26.693,0,0,0,2.863.211c-.522.207-1.069.441-1.649.717M76.659,89.1s-.063.256-.093.381a.528.528,0,0,1-.1.107,3.747,3.747,0,0,0,.189-.487m-7.25-3.244a19.97,19.97,0,0,1,2.822.756,3.875,3.875,0,0,1,.547-.107c-.1.055-.23.129-.339.189-.071-.027-.131-.056-.208-.082a7.328,7.328,0,0,0-1.734.756c-.066.015-.126.023-.194.041-.252,0-.52-.005-.8-.011-.145-.023-.3-.031-.449-.044-.019-.007-.044-.014-.063-.022a5.345,5.345,0,0,0-1.1-1.177,14.422,14.422,0,0,0,1.523-.3m-8.492.879c1.037.19,2.013.417,2.935.649-.293.052-.588.105-.892.164-.068-.011-.148-.021-.216-.033.033.018.077.037.109.053-.5.1-1.006.193-1.523.29-1.43.088-2.989.175-4.63.223-.164-.049-.331-.094-.5-.138,1.069-.312,2.095-.619,3.063-.869,1.274.129,2.426.279,3.482.441a18.994,18.994,0,0,0-1.827-.78l-.055-.011.019,0c-.181-.067-.366-.133-.561-.2,1.854-.053,3.536-.059,5.071-.136a5.484,5.484,0,0,1,1.3.646,15.084,15.084,0,0,0-1.526.14,6,6,0,0,0-4.283-.45l.036.014m5.516-2.312c-.457,0-.941.03-1.439.075a4.326,4.326,0,0,0-.785-.283c.788.064,1.534.134,2.223.208m-9.933.959c2.319.156,3.123.127,2.71-.4a21.142,21.142,0,0,1,3.547-.167c-1.433.26-2.992.63-4.674,1.053-.6-.151-1.247-.293-1.936-.42l.353-.062m-.408-.026-.164.044c-.205-.037-.421-.068-.635-.1l.8.057M52.529,86.68c-.7.129-1.417.292-2.158.5-.273-.167-.547-.322-.818-.523,1.034-.007,2.021,0,2.976.023m-2.472,1.226c.055-.01.112-.022.17-.031.036.018.071.031.107.049-.093-.008-.183-.01-.276-.018m.829-.4c-.06-.031-.175-.108-.175-.108l.2.1-.022,0m.779.5c-.134-.073-.265-.164-.4-.244.118.037.235.079.356.114.09.045.183.1.273.144l-.23-.014m.361.022c-.085-.033-.17-.081-.254-.116.194.053.388.093.583.138-.107-.005-.222-.015-.328-.022m.484.876.077-.018.038.008c.219.079.44.163.656.235-.254-.067-.511-.146-.771-.226m-.364-1.4q1.309-.279,2.557-.6c.315-.036.632-.074.938-.1.607.034,1.209.068,1.778.111q-1.243.335-2.574.742a12.522,12.522,0,0,0-2.7-.153m5.01,38.545c1.832-.167,2.967-1.938,2.513-.794-.569,1.931-1.291,1.559-2.513.794m.574,4.476c.837-.289,1.154-.825.771-.624a1.016,1.016,0,0,1-.717.308,5.173,5.173,0,0,0,.126-.532,2.2,2.2,0,0,1,.946.008c-.161,2.531-.317,1.783-1.127.84M70.905,90.107q-.414-.257-.862-.553c-.137,0-.276-.011-.418-.026-.216.125-.432.244-.654.349-.079-.026-.164-.041-.246-.064a6.537,6.537,0,0,1-.807.5c-.12.041-.243.074-.366.111.014.015.03.03.044.047a5.268,5.268,0,0,1-2.727.422,17.74,17.74,0,0,1-3.306-.148c.1-.063.2-.126.3-.189-.243.047-.484.092-.738.136-.834-.123-1.7-.292-2.59-.491a24.715,24.715,0,0,0,3.706.026c-.025-.01-.047-.019-.071-.027.077,0,.15-.007.224-.008.265-.193.506-.382.719-.561-.665.045-1.351.089-2.062.125-.3-.125-.6-.253-.908-.383a14.649,14.649,0,0,1-4.893-.062c.558.166,1.11.3,1.655.416-.167-.012-.331-.027-.5-.044-.626-.162-1.264-.331-1.917-.511l.2.019c.189.047.375.083.563.119-.118-.034-.235-.062-.353-.1a24.392,24.392,0,0,0,4.439-.178c.273.112.542.224.807.338a38.508,38.508,0,0,0,4.146-.89,9.4,9.4,0,0,1-1.176,1.148c1.168-.078,2.262-.144,3.263-.125l.574-.153a6.344,6.344,0,0,0-.484-.876,5.4,5.4,0,0,1,.7.163c.055.044.118.071.172.122.03-.019.055-.033.088-.051a4.16,4.16,0,0,1,.714.339c-.361.088-.758.189-1.187.3.027.057.052.12.077.181-.211-.014-.429-.023-.651-.027-.585.156-1.217.319-1.9.487.9-.127,1.75-.285,2.557-.454l.066.151c.181-.03.361-.062.536-.093-.189-.023-.38-.048-.577-.062q.771-.162,1.488-.331c.03.011.063.021.1.031.025.045.055.079.079.127.03.008.057.01.088.018-.377.071-.771.144-1.173.216a7.48,7.48,0,0,1,1.1.215c.15-.11.3-.226.457-.355.148.027.3.055.443.07.027-.015.055-.027.082-.044.088.011.172.012.26.019l.077.051c.2.007.394,0,.585-.011l-.041-.019c.082,0,.164-.007.249-.012v.019c.082-.008.159-.016.238-.027l0,0c.038,0,.074-.011.112-.015l-.109.018c.271.233.531.445.779.641a5.336,5.336,0,0,0-.949-.037m5.308.947a.877.877,0,0,1-.449.419,1.958,1.958,0,0,1-3.085-.2c.033-.047.063-.1.093-.149-.1-.047-.208-.09-.317-.145a5.868,5.868,0,0,1-.438-.713c.315.238.613.448.894.624a4.58,4.58,0,0,0,.2-.437,5.63,5.63,0,0,0-1.149-.3c-.112-.222-.224-.467-.334-.734l.1-.016a9.357,9.357,0,0,0,1.57.5c.025-.086.044-.178.066-.268l.088.038c.107.108.208.214.3.32.2.031.4.055.585.068a9.881,9.881,0,0,0,.889.758,3.5,3.5,0,0,0,.175-.65,1.292,1.292,0,0,0,.749-.235c.107-.026.208-.055.306-.085a3.183,3.183,0,0,1-.637,1.2.439.439,0,0,0,.216-.067,3.527,3.527,0,0,0,.531-1.169c.025-.008.046-.016.071-.023l.112-.456s-.071.3-.1.452a2.729,2.729,0,0,0,.875-.483,11,11,0,0,1-1.313,1.747m-24.672,71.5a2.266,2.266,0,0,1,1.846-.438c-1.493.667-2.74,1.35-1.846.438m40.537,2.909c3.81-5.357,3.1-1.893,0,0m4.668,4.781c.038-.155-.022.194-.022.194s.019-.14.022-.194m12.217,2.687s.055-.3.079-.434c.019-.049.038-.114.06-.179-.047.2-.139.613-.139.613m.186.768c.265-1.452.421-2.445.52-3.074.317-1.017.577-1.57.429-.36-.181.413-1.545,6.677-.949,3.434m792.294,37.451a2.443,2.443,0,0,0,.536.2c-.312.056-.547.064-.536-.2M2060.335,19.7c-.681.253-1.345.494-1.98.713.375-.194.809-.415,1.3-.667.229-.057.621-.188,1.239-.416-.195.127-.386.252-.564.37m.621-1.529-.257.134-.049,0,.306-.137m-4.018,2.249c-.75.189-.306-.16,1.231-1.01.517-.227,1.159-.513,1.922-.853h.126a21.347,21.347,0,0,0-3.279,1.864m-8.1-2.658a5.907,5.907,0,0,0-1.428,2.137c-7,3.615-6.263,2.328,1.428-2.137m-.8,3.117c1.57.409,5.839-.683,12.077-2.729a27.146,27.146,0,0,0-3.451,1.864c-.175.092-.192.109-.121.088-1.047.728-1.149,1.126-.008.916-6.408,2.024-9.8,2-8.5-.138m56.227,41.242.017,0c.044,0,.079.005.12.011l-.137-.008m.074-.148-.025-.014.063,0-.039.011m.312.168c-.044-.025-.082-.042-.126-.067.074-.021.159-.062.235-.089.093.06.181.114.274.178-.137-.01-.249-.014-.383-.022m6.058,3.481c-2.016-.431-3.408-.244-2.864.649-.074.083-.027.172.194.268a6.33,6.33,0,0,0,1.233.992,9.436,9.436,0,0,1-2.557,1.173c.383-.5.787-1.047,1.222-1.662l-.027.005c-.864.65-1.616,1.277-2.256,1.859a3.366,3.366,0,0,1-2.943-.879c-.968.126-1,.045-.115-.156a.881.881,0,0,1,.142-1.239,15.942,15.942,0,0,0,1.966-.387,11.636,11.636,0,0,1,3.219.764h.014a20.1,20.1,0,0,0-2.56-.957c.254-.075.49-.133.763-.222-2.207-.835-3.67-1.295-4.515-1.53a28.762,28.762,0,0,0,6.094.319c6.67.407,5.139.676,2.989,1m18.915,28.245c-.265-.152-.265-.181,0,0M2128.2,74.731a11.53,11.53,0,0,1-3.449.1c.968-.034,2.087-.07,3.449-.1m-6.8-2.309c-.744.927-1.351,1.662-1.871,2.289a48.583,48.583,0,0,1,7.343-3.207c-.06.052-.12.088-.183.138.09-.04.172-.082.262-.122-.2.137-.4.256-.607.382a15.974,15.974,0,0,1-4.573,2.583c.279-.189.6-.409.971-.665-.38.171-.706.309-1,.435.654-.4,1.362-.817,2.155-1.243l.016-.011c-2.092,1.055-3.46,1.671-4.228,1.966-.134.014-.257.016-.383.022-.047.052-.09.107-.134.157-.29.081-.293.015-.082-.146-3.169.012-3.386-2.539,2.317-2.577m1.1,2.679c-2.059.426-2.576.656-1.408-.148.3,0,.752-.016,1.3-.036.033.059.063.112.109.183m7.234,30.721c-8.246-.177-7.614-5.282,2.174.171.224.43.429.808.637,1.189-9.258,1.124-9.014-1.659-2.812-1.361m4,4.995a6.978,6.978,0,0,0-2.374-1.919c.284-.127.73-.535,1.247-1.6.728,1.335,1.352,2.377,1.893,3.186a3.3,3.3,0,0,0-.766.334m-2.609-17.2c-.75-.222-.925-.575-.577-1.047a3.421,3.421,0,0,0,1.581.757,2.926,2.926,0,0,0-1,.29m4.9.142a31.941,31.941,0,0,0,4.075-.2c-1.138.105-2.15.182-3.08.238-.345-.008-.675-.021-1-.036m28.624,64.2c-5.407.428-6.091.2,0,0" transform="translate(0 60.138)" fill="#412814"/>
      <path id="Tracé_660" data-name="Tracé 660" d="M51.681,72.743a48.528,48.528,0,0,1-9.838-3.6C23.7,71.666,48.229,66.5,38.5,66c4.5-2.568-12.444,3.993-13.85,1.026-.557,1.915-6.081,1.514,4.449,1.055A48.28,48.28,0,0,1,9.28,70.646c-3.047,1.877-12.574,4.535,1.681,4.061-3.808-1.7,7.36-2.062-.4-2.348,5.877-.223,21.91.907,15.517,2.606,6.726,1.28,21.314-4.135,21.2-1.695,2.335.153,3.109.483,3,.8.968-.073,1.927-.149,2.808-.222.217-.125.427-.244.635-.362a10.923,10.923,0,0,1-4.9-1.153,14.5,14.5,0,0,0,2.866.405" transform="translate(7.461 24.231)" fill="#fff"/>
      <path id="Tracé_661" data-name="Tracé 661" d="M794.062,115.078l-.055-.015-.214.02c.091,0,.175,0,.269-.005" transform="translate(1372.013 42.391)" fill="#fff"/>
      <path id="Tracé_662" data-name="Tracé 662" d="M795.519,115.094c-.729-.11-1.425-.21-2.105-.308l1.444.367c.227-.021.431-.037.661-.059" transform="translate(1371.165 42.297)" fill="#fff"/>
      <path id="Tracé_663" data-name="Tracé 663" d="M9.932,66.007a1.17,1.17,0,0,0,.058.823,1.233,1.233,0,0,0-.055-.824h0" transform="translate(22.126 24.329)" fill="#fff"/>
      <path id="Tracé_664" data-name="Tracé 664" d="M12.456,57.058q.695.069,1.409.174c-.686-2.825-3.361-1.844-5.23-.609a9.565,9.565,0,0,1,3.821.435" transform="translate(19.327 20.432)" fill="#fff"/>
      <path id="Tracé_665" data-name="Tracé 665" d="M20.689,70.92a17.383,17.383,0,0,1-2.425.05c1.237.248,2.1.252,2.425-.05" transform="translate(40.878 26.131)" fill="#fff"/>
      <path id="Tracé_666" data-name="Tracé 666" d="M792.838,116.472c-.152.39-.285.732-.408,1.054.233-.079.456-.148.7-.239-.162-.081-.252-.2-.139-.275a.719.719,0,0,1-.153-.54" transform="translate(1368.962 42.935)" fill="#fff"/>
      <path id="Tracé_667" data-name="Tracé 667" d="M4.6,62.566a3.186,3.186,0,0,0,2.523-.438c-.317-.016-.631-.048-.949-.078a10.916,10.916,0,0,1-1.574.516" transform="translate(10.289 22.868)" fill="#fff"/>
      <path id="Tracé_668" data-name="Tracé 668" d="M813.467,107.589c-7.746-.176-14.132-.631-18.924.18,5.019,1.16,11.084-.181,18.924-.18" transform="translate(1373.691 39.552)" fill="#fff"/>
      <path id="Tracé_669" data-name="Tracé 669" d="M802.127,115.667a1.2,1.2,0,0,0-.036-.354c-.2.148-.152.262.036.354" transform="translate(1390.3 42.491)" fill="#fff"/>
      <path id="Tracé_670" data-name="Tracé 670" d="M791.134,86.15c.81-.2,1.684-.375,2.591-.535a13.159,13.159,0,0,0-2.591.535" transform="translate(1366.061 31.551)" fill="#fff"/>
      <path id="Tracé_671" data-name="Tracé 671" d="M790.615,79.274c-.648-.424-1.334.085-2.053.792.955.342,1.9.354,2.053-.792" transform="translate(1360.305 29.168)" fill="#fff"/>
      <path id="Tracé_672" data-name="Tracé 672" d="M793.063,77.63a4.961,4.961,0,0,1-1.081,1.245c.431.192.8-.1,1.081-1.245" transform="translate(1367.959 28.621)" fill="#fff"/>
      <path id="Tracé_673" data-name="Tracé 673" d="M783.279,52.184c2.568,0,5.327.4,9.951.3-1.668-4.617-6.683-3.018-9.951-.3" transform="translate(1348.48 18.291)" fill="#fff"/>
      <path id="Tracé_674" data-name="Tracé 674" d="M782.418,55.272a10.623,10.623,0,0,1,3.277-1.008c-1.195-.355-2.532.523-3.277,1.008" transform="translate(1346.554 19.974)" fill="#fff"/>
      <path id="Tracé_675" data-name="Tracé 675" d="M808.357,90.553a31.075,31.075,0,0,0-15.6,1.034,35.55,35.55,0,0,0,15.6-1.034" transform="translate(1369.683 33.196)" fill="#fff"/>
      <path id="Tracé_676" data-name="Tracé 676" d="M792.15,92.28c.932-.284,1.959-.629,3.092-.975-3.225-.489-4.365-.956-3.092.975" transform="translate(1367.195 33.506)" fill="#fff"/>
      <path id="Tracé_677" data-name="Tracé 677" d="M794.7,86.014H794.6l.022,0,.072-.005" transform="translate(1373.826 31.689)" fill="#fff"/>
      <path id="Tracé_678" data-name="Tracé 678" d="M780.782,48.259c-.829-3.215-2.963-2.21-4.507-.989,1.188.711,2.817,1.689,4.507.989" transform="translate(1332.804 17.008)" fill="#fff"/>
      <path id="Tracé_679" data-name="Tracé 679" d="M779.7,47.793a13.031,13.031,0,0,1,.605,1.412s-.605-1.817-.605-1.412" transform="translate(1340.465 17.601)" fill="#fff"/>
      <path id="Tracé_680" data-name="Tracé 680" d="M779.84,49.219c0-.473-.068-1.113-.068-1.43-.149-.162-.159.221.068,1.43" transform="translate(1340.391 17.608)" fill="#fff"/>
    </g>
  </g>
</svg>
