<svg xmlns="http://www.w3.org/2000/svg" width="24.225" height="24.291" viewBox="0 0 24.225 24.291">
  <path id="PINTEREST_MENU" data-name="PINTEREST MENU" d="M11.864,194.259l2.384-6.15a3.605,3.605,0,0,0,3.478.943,5.363,5.363,0,0,0,3.607-2.5c2.5-3.96,1.439-9.65-4.135-10.812-3.692-.77-7.673.8-8.8,4.741a5.841,5.841,0,0,0,.73,5.125,11.869,11.869,0,0,0,1.5,1.486c.3-1.007.643-1.657.141-2.524A4.382,4.382,0,0,1,11,179.78a4.765,4.765,0,0,1,4.513-2.224c3.316.152,5.162,2.734,4.357,6.17a7.005,7.005,0,0,1-1.242,2.57,3.036,3.036,0,0,1-1.741.967c-1.516.29-2.387-.745-2-2.242.211-.814.467-1.615.682-2.428a4.438,4.438,0,0,0,.156-.979,1.439,1.439,0,0,0-.838-1.572,1.579,1.579,0,0,0-1.868.491,3.586,3.586,0,0,0-.664,3.1,5.293,5.293,0,0,1,0,1.7c-.355,1.8-.862,3.571-1.153,5.379a20.5,20.5,0,0,0-.031,3.211c-4.837-.711-8.841-7.8-7.717-13.531A12.128,12.128,0,1,1,26.974,186.2c-1.945,6.432-9.045,10.187-15.11,8.061" transform="translate(-3.265 -170.565)" fill="#FFFFFF"/>
</svg>
