<svg xmlns="http://www.w3.org/2000/svg" width="48.106" height="40.36" viewBox="0 0 48.106 40.36">
  <g id="S_HABILLER_MENU" data-name="S&apos;HABILLER MENU" transform="translate(0 0)">
    <path id="Tracé_2480" data-name="Tracé 2480" d="M47.8,34.014c-.27-2.458-2.145-3.737-4.029-4.842A65.437,65.437,0,0,1,27.715,15.635c6.44,2.726,12.109,6.914,17.376,11.593,1.77,1.477,3.793,4.29,2.71,6.786" transform="translate(0 0.817)" fill="#412814"/>
    <path id="Tracé_2481" data-name="Tracé 2481" d="M.137,33.116a3.821,3.821,0,0,0,4.331,3.325c2.143-.173,4.286-.324,6.428-.43,4.283-.223,8.569-.366,12.856-.387,6.342-.076,12.848.028,19.191.376A5.859,5.859,0,0,0,47.8,33.1c.039,1.847-1.437,3.41-2.849,4.359-1.5,1.059-3.376.777-5.13.93-5.326.184-10.75.293-16.07.214-4.287-.021-8.573-.164-12.856-.387-2.142-.106-4.285-.258-6.428-.431a4.393,4.393,0,0,1-4.331-4.67" transform="translate(0 1.73)" fill="#412814"/>
    <path id="Tracé_2482" data-name="Tracé 2482" d="M17.6,7.458C18.653-4.834,34.389-.6,28.521,10.5a21.8,21.8,0,0,1-5.3,5.958,119.674,119.674,0,0,1-11.979,9.322c-2.769,1.9-6.666,4.33-9.562,6.007-.933.4-1.33,1.792-1.547,3.054a6.419,6.419,0,0,1-.094-2.021A2.969,2.969,0,0,1,1,30.852c1.822-1.836,3.76-3.438,5.713-5.088C11.566,21.808,16.77,18.093,21.9,14.613,37,3.894,20.612-5.893,17.6,7.458" transform="translate(0 0)" fill="#412814"/>
  </g>
</svg>
