<svg xmlns="http://www.w3.org/2000/svg" width="30.112" height="40" viewBox="0 0 30.112 40">
  <g id="SHOPPING_MENU" data-name="SHOPPING MENU" transform="translate(0 0)">
    <path id="Tracé_2350" data-name="Tracé 2350" d="M3.531,87.137c6.483-.22,13.453-.458,19.932-.594.409,0,3.184-.057,3.54-.059.74,4.929,1.664,11.473,2.323,16.414.268,1.993.532,3.994.785,5.989l-.758.216c-1.505.424-4.337,1.238-5.843,1.654-3.4-.191-8.094-.391-11.443-.6Q6.034,109.828,0,109.431l.1-.692c.971-6.864,2.285-14.745,3.431-21.6m0,0c-.5,6.243-1.306,15.6-1.944,21.75l-.7-.743c1.881.06,3.762.112,5.642.184,5.431.192,11.457.441,16.916.692l-.342.039c1.409-.408,4.262-1.206,5.674-1.6l-.668.922q-.335-2.643-.649-5.287c-.569-4.711-1.3-11.16-1.794-15.878l.713.57c-6.527-.1-16.228-.435-22.845-.643" transform="translate(0 -70.756)" fill="#412814"/>
    <path id="Tracé_2351" data-name="Tracé 2351" d="M147.458,91.369a58.979,58.979,0,0,1,1.186,10.506,58.318,58.318,0,0,1-.462,10.56A58.37,58.37,0,0,1,147,101.929a58.94,58.94,0,0,1,.462-10.56" transform="translate(-125.357 -73.621)" fill="#412814"/>
    <path id="Tracé_2352" data-name="Tracé 2352" d="M68.16,19.877c-.039-3.146.375-18.2-3.246-18.7a3.711,3.711,0,0,0-2.411,1.3c-2.694,2.931-3.148,8.284-3.35,12.133-.078,1.748-.071,3.5,0,5.263a39.091,39.091,0,0,1-.533-5.265c-.087-4.2.163-9.565,3.1-12.873A4.531,4.531,0,0,1,65,.1c5.085.537,3.708,16.023,3.161,19.777" transform="translate(-50.582 -0.078)" fill="#412814"/>
    <path id="Tracé_2353" data-name="Tracé 2353" d="M86.513,14.851C85.16,10.976,83.974,7,81.908,3.465c-.871-1.413-2.361-3.452-3.96-1.7a5.306,5.306,0,0,0-1.065,1.538c-1.571,3.513-.718,8.264-.085,11.969-1.462-4.108-2.953-10.726.384-14.265,1.363-1.464,3.04-1.276,4.338.156,2.8,3.153,4.276,9.56,4.993,13.683" transform="translate(-65.04 0)" fill="#412814"/>
  </g>
</svg>
