<svg xmlns="http://www.w3.org/2000/svg" width="27.3" height="22.646" viewBox="0 0 27.3 22.646">
  <path id="TWITTER_MENU" data-name="TWITTER MENU" d="M8,250.545a5.905,5.905,0,0,1-5.2-3.874l2.172-.114C2.414,245.478.9,243.729.757,240.9l2.439.673c-2.592-3.079-3.061-5.383-1.59-7.619a16.366,16.366,0,0,0,11.6,5.872c0-.283.012-.537,0-.789a5.469,5.469,0,0,1,3.09-5.562,5.57,5.57,0,0,1,6.395.781,1.268,1.268,0,0,0,.992.207,29.261,29.261,0,0,1,3.02-.88l-2.13,2.79,2.609-.677.12.146c-.708.719-1.381,1.477-2.136,2.142A1.466,1.466,0,0,0,24.6,239.2,16.177,16.177,0,0,1,.37,253.291a1.2,1.2,0,0,1-.37-.312,12.132,12.132,0,0,0,8-2.434" transform="translate(0 -232.794)" fill="#412814"/>
</svg>
