<svg xmlns="http://www.w3.org/2000/svg" width="24.789" height="18.634" viewBox="0 0 24.789 18.634">
  <path id="YOUTUBE_MENU" data-name="YOUTUBE MENU" d="M14.961,120.352c3.031.283,6.033.5,9.016.866a3.185,3.185,0,0,1,2.928,2.963,31.081,31.081,0,0,1,.063,11.311,3.129,3.129,0,0,1-2.779,2.806,56.282,56.282,0,0,1-12.594.579c-1.889-.1-3.776-.323-5.65-.589a3.19,3.19,0,0,1-2.821-2.877,36.96,36.96,0,0,1,0-11.581,2.992,2.992,0,0,1,2.695-2.591c3.04-.362,6.095-.6,9.142-.887m-3.018,5.4v8.009l6.975-4.007-6.975-4" transform="translate(-2.667 -120.352)" fill="#FFFFFF"/>
</svg>
